<svg version="1" xmlns="http://www.w3.org/2000/svg" width="1066.667" height="1066.667" viewBox="0 0 800.000000 800.000000"><path d="M398.8 126.5c-.2.1-4.1.5-8.8.9-4.7.3-9.5.8-10.6 1-1.2.2-3.9.7-6 1-10.3 1.6-27 7.1-38.9 12.7-41.4 19.4-70.1 58.1-75.2 101.7-.9 7.5-.8 31.1.2 38.7 2.4 19.3 10.1 38.1 21.9 53.3 3.4 4.4 17.9 18.4 22.6 21.8 19.3 14.1 37.8 22.3 86 38 16.2 5.3 30.4 10 31.5 10.4 1.1.5 5.4 2 9.5 3.3 25 8.2 47.7 20.3 61.4 32.8 6.2 5.7 15.3 17.8 18.9 25.1 9.4 19.3 10.8 47.3 3.6 73.8-2.2 8.1-6.2 18.8-8.9 23.5-5.1 8.9-6.7 11.4-9.8 15.5-18 23.2-44.5 39-74.7 44.6-15.5 2.9-34.7 3.6-51.7 2.1-10.8-1-26.5-4.2-32.3-6.6-1.1-.5-4.5-1.6-7.5-2.6-18.4-6-37.7-18.4-61.5-39.4-3.8-3.4-8.3-6.9-9.9-7.7-3.7-2-8.6-1.1-11.9 2.2-3 3-11.7 16.6-11.7 18.4 0 3.1 37.3 36 40.8 36 .6 0 1.2.3 1.4.7.5 1.2 11.4 7.6 21.7 12.7 15.6 7.9 34.7 13.6 54.1 16.2 15 2 46.7 2.6 59.5 1.1 12.1-1.4 14.2-1.8 26.1-4.7 37-9.2 68-30 88.6-59.5 12.3-17.7 23.2-45.5 25.4-65 .3-2.8.8-5.4 1.1-5.9 1.3-2 1.1-32.5-.3-41.6-1.9-13.8-3.9-20.3-9.4-31.6-9.1-18.8-22.2-33.4-41-45.9-18.9-12.6-40.3-21.6-93.7-39.5-36.7-12.4-47.6-16.6-60.3-23.3-24.7-13.2-43.3-31.6-50.1-49.6-5.6-15.1-6.7-35.1-3-54.6 4.4-22.3 19.8-45.3 39.2-58.2 17.6-11.7 31.9-16.6 56.9-19.8 6.6-.9 28.3-.9 36-.1 26.7 3 57.7 16.4 77.8 33.9 8 6.9 12.9 9.6 16.9 9.2 4.7-.4 7-3 12.8-13.8l4.7-8.9-2.4-2.5c-4.2-4.5-17.1-14.9-25.8-20.8-20.3-13.6-47.5-23.8-72-27.1-10.6-1.3-40.2-2.7-41.2-1.9z"/></svg>