<?xml version="1.0" encoding="UTF-8" standalone="no"?>
<!-- Generator: Adobe Illustrator 18.0.0, SVG Export Plug-In . SVG Version: 6.00 Build 0)  -->

<svg
   xmlns:dc="http://purl.org/dc/elements/1.1/"
   xmlns:cc="http://creativecommons.org/ns#"
   xmlns:rdf="http://www.w3.org/1999/02/22-rdf-syntax-ns#"
   xmlns:svg="http://www.w3.org/2000/svg"
   xmlns="http://www.w3.org/2000/svg"
   xmlns:sodipodi="http://sodipodi.sourceforge.net/DTD/sodipodi-0.dtd"
   xmlns:inkscape="http://www.inkscape.org/namespaces/inkscape"
   version="1.1"
   id="Capa_1"
   x="0px"
   y="0px"
   viewBox="0 0 12 10"
   xml:space="preserve"
   sodipodi:docname="bullet.svg"
   width="12"
   height="10"
   inkscape:version="0.92.2 5c3e80d, 2017-08-06"><metadata
     id="metadata7837"><rdf:RDF><cc:Work
         rdf:about=""><dc:format>image/svg+xml</dc:format><dc:type
           rdf:resource="http://purl.org/dc/dcmitype/StillImage" /><dc:title></dc:title></cc:Work></rdf:RDF></metadata><defs
     id="defs7835" /><sodipodi:namedview
     pagecolor="#ffffff"
     bordercolor="#666666"
     borderopacity="1"
     objecttolerance="10"
     gridtolerance="10"
     guidetolerance="10"
     inkscape:pageopacity="0"
     inkscape:pageshadow="2"
     inkscape:window-width="1353"
     inkscape:window-height="960"
     id="namedview7833"
     showgrid="false"
     inkscape:zoom="16.965506"
     inkscape:cx="17.691304"
     inkscape:cy="3.46714"
     inkscape:window-x="0"
     inkscape:window-y="0"
     inkscape:window-maximized="0"
     inkscape:current-layer="Capa_1" /><path
     style="stroke-width:0.01967685;fill:#0000ff"
     d="M 4.34375 0 C 4.34375 0 3.2864006 0.87348971 3.1308594 2 C 3.7145571 2.4066528 4.0563406 3.0428541 4.2480469 3.5527344 L 4.34375 2.0019531 L 4.4296875 3.4101562 L 4.4257812 3.5644531 L 4.4121094 4.2480469 C 5.3168624 3.6214601 6.5157785 1.9506974 4.34375 0 z M 1.5527344 1.8710938 C 0.84116028 1.8710938 0.24414062 2.0878906 0.24414062 2.0878906 C 0.24414062 2.0878906 0.44786506 3.3752158 1.2832031 4.0957031 C 1.3528961 4.0574501 1.4249939 4.0215416 1.5 3.9902344 C 1.7971517 3.866444 2.131501 3.8046875 2.4921875 3.8046875 C 2.6922955 3.8046875 2.8859848 3.8247528 3.0703125 3.8554688 L 1.9667969 3.1074219 L 3.7695312 4.03125 C 3.8978602 4.074816 4.0098067 4.1184494 4.0996094 4.15625 C 4.0999242 4.1553842 4.1011302 4.1535438 4.1015625 4.1523438 C 3.9835643 3.6814872 3.6426652 2.6660043 2.828125 2.1835938 C 2.4284598 1.9469928 1.9708363 1.8710938 1.5527344 1.8710938 z M 6.8632812 2.171875 C 6.5441119 2.1720324 6.2108238 2.224777 5.9003906 2.3652344 C 5.8734936 3.0343047 5.5888146 3.5500412 5.2753906 3.9179688 L 6.6484375 3.3769531 L 4.7792969 4.390625 C 4.6964597 4.4547339 4.6241811 4.5040811 4.5683594 4.5410156 C 4.8526821 4.647785 5.3734154 4.8105469 5.9433594 4.8105469 C 6.2687269 4.8105469 6.6083382 4.7563256 6.9238281 4.609375 C 8.061355 4.079719 8.4628906 2.53125 8.4628906 2.53125 C 8.4628906 2.53125 7.7101496 2.171875 6.8632812 2.171875 z M 2.4902344 4.125 C 2.2017994 4.125 1.9051265 4.1694186 1.6230469 4.2871094 C 0.46468285 4.7696578 2.9605947e-16 6.3007813 0 6.3007812 C 0 6.3007812 0.80810872 6.7285156 1.703125 6.7285156 C 1.8412331 6.7285156 1.9814904 6.7169714 2.1210938 6.6933594 C 2.1278624 6.6217136 2.1366565 6.5507513 2.1503906 6.4785156 C 2.2462339 5.9738105 2.5073143 5.543199 2.8027344 5.1992188 L 1.8476562 5.5292969 L 3.0429688 4.9433594 C 3.3166466 4.6755699 3.5883114 4.4798602 3.7617188 4.3671875 C 3.4422542 4.2513665 2.979112 4.125 2.4902344 4.125 z M 3.9316406 4.640625 C 3.5525174 4.8883041 2.6490337 5.5677623 2.4648438 6.5371094 C 2.2306169 7.7699563 3.2539062 9 3.2539062 9 C 3.2539062 9 4.6134873 8.2523215 4.8769531 7.0507812 C 4.3614731 6.4998934 4.1629609 5.7536885 4.0898438 5.2070312 L 3.6269531 7.0332031 L 3.9316406 4.640625 z M 4.375 4.8105469 C 4.402763 5.3161375 4.5440939 6.3284609 5.2207031 6.9433594 C 5.8222276 7.4898396 6.6975814 7.5859375 7.2402344 7.5859375 C 7.5354774 7.5859375 7.7324219 7.5585937 7.7324219 7.5585938 C 7.7324219 7.5585938 7.8094236 5.9608549 6.8808594 5.1171875 C 6.8392047 5.079525 6.7940552 5.0493127 6.75 5.015625 C 6.5014488 5.0906745 6.2316566 5.1308594 5.9433594 5.1308594 C 5.6402851 5.1308594 5.3534928 5.08737 5.0996094 5.03125 L 6.25 6.2109375 L 4.6113281 4.8964844 C 4.5192031 4.8656304 4.4380822 4.8356749 4.375 4.8105469 z "
     id="XMLID_313_" /><g
     id="g7802"
     transform="translate(0,-447.37799)" /><g
     id="g7804"
     transform="translate(0,-447.37799)" /><g
     id="g7806"
     transform="translate(0,-447.37799)" /><g
     id="g7808"
     transform="translate(0,-447.37799)" /><g
     id="g7810"
     transform="translate(0,-447.37799)" /><g
     id="g7812"
     transform="translate(0,-447.37799)" /><g
     id="g7814"
     transform="translate(0,-447.37799)" /><g
     id="g7816"
     transform="translate(0,-447.37799)" /><g
     id="g7818"
     transform="translate(0,-447.37799)" /><g
     id="g7820"
     transform="translate(0,-447.37799)" /><g
     id="g7822"
     transform="translate(0,-447.37799)" /><g
     id="g7824"
     transform="translate(0,-447.37799)" /><g
     id="g7826"
     transform="translate(0,-447.37799)" /><g
     id="g7828"
     transform="translate(0,-447.37799)" /><g
     id="g7830"
     transform="translate(0,-447.37799)" /></svg>