<svg xmlns="http://www.w3.org/2000/svg" viewBox="0 0 13 11">
  <linearGradient id="a" x2="13" y1="5.5" y2="5.5" gradientUnits="userSpaceOnUse">
    <stop offset="0" stop-color="#3b3027"/>
    <stop offset=".5" stop-color="#4a362f"/>
    <stop offset=".7" stop-color="#533a35"/>
  </linearGradient>
  <path fill="url(#a)" d="M8.3 5.6v.3c-1-1.6-.7.3-.3.1.2.3.1.6 0 .9-.5.2-.9-1.4-.9-1.6-.6.5.5 1.8.7 2.2-.2.1-.8-1.2-1-1.5.1.7 1 1.6 1 2.2l-.3-.3c0 .4.9 1 .3 1.3 0-.3-.1-.5-.4-.6v.8c-1.1-.9-.4.5-.4 1-.1.8-.2.9-.5.1-.1-.3.2-.8 0-1.1-.3-.6-.5-.2-.5-.3-.4-.2-.4-.8-.8-.3-.3-.3 0-.7-.1-1-.1.3-.3.4-.5.3l.2-.9c-1.1 0-5.4-.4-4.8-2 .7-1.7 5.2-1.7 6.5-1-.2-.9.1-1.1.6-.2a6 6 0 0 1 2.3-2.7c.7-.5 2.7-1.8 3.5-1.1.5.5-1 2.7-1.2 3.2-.6 1.1-1.6 1.1-.4 2-.8.3-.2.2 0 .7l-.5.2.2.7h-.5c-.1.4 1.4 2.1 1.1 2.1-.5-.1-1.4-2.3-1.6-.9-.8-.6-.4-.2-.5.3-1.1-.2-.8-2.1-1.2-2.9 0 .2.1.4 0 0zm.4-3.1c-.2.5 1.2-.8 1.1-.9L8.2 2.8c.1.2.3.1.5-.3 0 0-.2.1 0 0zM4 4.4c.4.1.7 0 1-.2-.3-.1-2 0-2 .5.3-.2.6-.2 1-.3.3 0-.4.1 0 0zm.1.4c.5.1 1-.1 1.5-.2-.2-.3-1.7.1-2 .2-.6.2-.9.6-1.5 1 .3-.3.7-.5.8-.9-.6-.2-1.4.8-1.8 1.2.1.2 1.3-1 1.6-1.1 0 0-2.1 2.2-.5.9-.4.6-.2.5.3 0-.4.2-.5.4-.3.5l.5-.6c.2.2-.1.2.1.3l.8-.9c.1.1-.8 1.3-.8 1.2.2.2.3.1.5-.4-.9 1.7 1-1 1.1-.9l-.5.7c.2.1.8-.8.8-.9-.5.1-.8.3-1 .6.4-.8.1-.4-.5-.2.3-.2.2-.3-.1-.3.4-.1.7 0 1-.2.5.1-.2.1 0 0zm5-1.7c.2 0 2 .1 2-.1l-1.4-.2s1.5.1 1.6 0c-.8-.2-.6-.2.3-.2 0-.2-1.3-.2-1.5-.2.4 0 2.7 0 1-.2l.9-.1c-.6-.2-1.4-.2-1.9.1 0 0-.9.5-.4.7-.3 0-.6.2-.8.3l2 .2c-.6-.3-1.2-.2-1.8-.3.4 0 .3 0 0 0zm.8.8c.1-.3.4 0 .6-.2-.4 0-1-.3-1.4-.2-.3.1-.6.2 0 .3-.7.4 1 .4 1.3.2-.1.1-.3 0-.5-.1.2-.3.2.1 0 0zm-5.5 2c.2-.4.4-.8.8-1-.5 0-1.5 1.3-1.5 1.8.3-.4.4-.4.2.1.3-.3.4-.4.1 0 .3.2.6-1.3.3.2.1-.2 1.3-1.7.5-1.3.1-.2.4-.6.3-.7l-.7.9c.2-.4.3-.3 0 0zM11.3 1c-.2 0-1.3.3-1.3.6l2.1-.4h-.9c.1 0 1 .1 1-.1l-.9-.1 1-.2c-.9.1-.8 0 .1-.2-.1-.2-1.1.2-1.2.3-.1.1-.1.1.1.1-.5.1-.1 0 0 0zM1.2 5.3l.5-.6.8-.3C2.4 4 .5 5.1.2 5.6L1 5l-.7.7c.1.2.2.1.4-.2-.2.5-.2.4.2.2-.4.7.3-.1.4-.2-.4.8 1.3-.6 1.4-.8.3-.6-1.6.7-1.5.6.2-.1.2-.1 0 0zm5.4.3c-.1.1-.9 1.2-.5 1.4.6.4.6-1.2.5-1.4-.2.1.2.5 0 0zm2.7.1C9 5 8.3 5 7.7 4.9c.5.4.9.9 1.6.8-.2-.3-.7.1 0 0zm1.2-3.9l1.7-.3c-.6 0-1.7-.1-2.1.4.5.2 1.2 0 1.7 0 .1-.2-1.2-.1-1.3-.1 0 0 .5 0 0 0zM8.3 4.7c.5.2 1 .3 1.6.2-.6-.3-1.1-.4-1.6-.2zM5.2 6.6c.4-.1 1-.8 1-1.1-.5.2-.8.6-1 1.1zM11 3.7c0-.3-1.8-.3-2.1-.2l2.1.2c0-.1-.7-.1 0 0zM6.9 6.5c-.3.4-.3.4.2 1.2l-.2-1.2zm-1.6.9c.3.1.8-1 .6-1.1l-.6 1.1c0 .1.2-.3 0 0zm3.1-4.5c.2.2 1.4-.8 1.6-.9-.2-.2-1.3.8-1.6.9.1.1.5-.3 0 0zm-1 .9c.2.1.5 0 .7-.3-.4-.3-.7-.2-.7.3 0 .1.1-.1 0 0zm-1.8.7c.3.1.6.1.8 0-.3-.4-.6-.4-.8 0 .3.2.1-.1 0 0zm3.3 2.1c.1-.4-.1-.7-.5-.8l.5.8zM8.8 5c.3.3.6.4 1 .2l-1-.2zm-.4-1.8c.1.1 1.4-.9 1.4-.9-.1-.2-1.4.9-1.4.9s.4-.3 0 0zm1.8 2.7c-.1-.1-.7-.6-.8-.3l.8.3c-.2-.2-.3-.1 0 0zM6 7.1c-.3 0-.3.6-.3.8.2.1.3-.6.3-.8 0 0-.1.3 0 0zM10.4.9c0 .1 1.3-.4 1.2-.5l-1.2.5s.4-.2 0 0z"/>
</svg>
