<svg style="display: none;" id="icons" version="1.1" xmlns="http://www.w3.org/2000/svg">

    <symbol id="icon-facebook" viewBox="0 0 16.933 16.933">
        <path d="M8.467 0C3.799 0 0 3.8 0 8.467c0 4.67 3.8 8.466 8.467 8.466 4.67 0 8.466-3.8 8.466-8.466C16.933 3.799 13.134 0 8.467 0zm2.106 8.764H9.195v4.91H7.153v-4.91h-.971V7.028h.97V5.905c0-.804.383-2.06 2.061-2.06l1.511.006v1.684H9.626c-.18 0-.434.091-.434.474v1.02h1.557z"/>
    </symbol>

    <symbol id="icon-instagram" viewBox="0 0 16.933 16.933">
        <path d="M4.232 0A4.224 4.224 0 0 0-.002 4.233V12.7a4.224 4.224 0 0 0 4.234 4.233h8.466a4.224 4.224 0 0 0 4.234-4.233V4.233A4.224 4.224 0 0 0 12.698 0H4.232zm8.995 1.587a1.058 1.058 0 0 1 1.059 1.059 1.058 1.058 0 0 1-1.059 1.058 1.058 1.058 0 0 1-1.058-1.058 1.058 1.058 0 0 1 1.058-1.059zm-5.33 2.11h1.136a4.209 4.209 0 0 1 4.201 4.201v1.137c0 2.314-1.887 4.2-4.2 4.2H7.896a4.209 4.209 0 0 1-4.202-4.2V7.898a4.21 4.21 0 0 1 4.202-4.201zm0 1.588a2.59 2.59 0 0 0-2.614 2.613v1.137a2.59 2.59 0 0 0 2.614 2.613h1.136a2.59 2.59 0 0 0 2.614-2.613V7.898a2.59 2.59 0 0 0-2.614-2.613H7.897z"/>
    </symbol>

    <symbol id="icon-time" viewBox="0 0 16.933 16.933">
        <path d="M11.996 12.255L7.654 9.282H7.65V4.233h1.235V8.63l3.807 2.607zm-3.53 2.982c-3.725 0-6.77-3.045-6.77-6.77 0-3.726 3.045-6.772 6.77-6.772 3.726 0 6.772 3.046 6.772 6.772 0 3.725-3.046 6.77-6.771 6.77M8.467 0C3.813 0 0 3.811 0 8.467c0 4.653 3.813 8.466 8.467 8.466 4.655 0 8.466-3.813 8.466-8.466C16.933 3.81 13.122 0 8.467 0"/>
    </symbol>

</svg>
