<svg xmlns="http://www.w3.org/2000/svg" viewBox="0 0 300 287"><path d="M238 201.2c-2.2 0-21 .5-20.9.7a4 4 0 0 0 2.9.2c-.8 1.3-3.8-.3-3.2 2 .2.9 9.6.2 10.7 0 6 0 16.4 2.1 21.7-.7-3.5-1.8-7.5-2-11.2-2.2-6.2-.2 3.8.2 0 0zm-.7 1.4c-.5-.9 4.5-.4 5.1-.4l-5 .4c-.2 0 1.6 0 0 0zm-44-92.2c8.7-.3 18.1 3.5 26.7 1.7-3.6-2.5-17.6-9.1-20.8-3.1 3.8-1 9.9-1.1 13.4.8-6.3-1.6-12.3-.3-18.8-.2 5.6-4.6 13.2-7.4 17.6-13.4-4.4.6-19.2 5-17.5 11.6 2.1-3 6.7-7.5 10.5-8.4-2.4 1.2-5.2 3-7.3 5-1.5 1.3-3.1 4.8-4.8 5.2a26.4 26.4 0 0 0-.7-19.2c-.8 2-1.4 4.3-1.8 6.5-.7 4.4 1.3 8.6 1 12.7-.4 3.4-4 3.6-6.4 6-1.2 1.1-2.2 3-3.2 4.4 3.1-2.7 8.4-8.6 11.3-8.5 6.7.2 12.2 6.7 19 7.4-2-2.6-10.7-10.6-14.3-7 3 .2 7.3 1.5 9.4 3.6A33.1 33.1 0 0 0 192 111c.3-.5.8-.8 1.4-.5zm-1.7.3c-.5-3.8-1-9.9-.2-13.4 0 2 1.7 12.2.2 13.4zm.5-.3c0-.3.3-.4 0 0zM146.8 61c.1-.1 0 0 0 0 0-.1 0 0 0 0zm41.3 6.5c-1.3 1.1-1.5 2-.6 2.4.4-1.5-.2.3.8-1.5l-3.5 12.2s.2-1.6 0-1.4c0 0-1.4 3.5-2.1 3.5-.2-.2 0-.7 0-1-1 .8-1.2 3.3-3.2 3 .1 0 1.3-2.2 1.3-2.5-1.3.7-1.6 3-3 3.8 0-.9.2-1.7 0-2.4-.8.4-1.1 2.9-2.2 3.6-.4-.8-.4-.1-.6-1.2l-1.6 1.9c-.3-.1-.3-.4-.1-1-.6.7-1 1.2-.6.3-.8.3-.8.8-1.4 1.2l-.4-.6c0 1-1.3-.8-1.5.6-1.3-1.6 1.9-1 1.7-1-.4 0 .4-3 .3-3-.3-.2-4.7 5.6-4.8 6.8 1-.3 5.7-2.5 5.5-1.6 1.2-.8 2.5-1.4 3.6-2.2-1 3.2-6.3 2-8.3 4.2-1.7 1.7-1 3.2-1 6-.5 0 0-2.5-.6 1 .9.2-1-.5-.5-.3.4-1.5.3-3.2.4-4.6-.3.1-.2.2-.7.6 0-.4-.5-1.5.3-1.7-.2.3-.2.6-.2 1 1-.3 0-4.5 0-3-.3-.4 0-2.6 0-3.1-.7-.1 0 2-.5 2-2.1-.3 0-2.4-1.3-3.4 0 1.4.4 2.2-.9 2.2-1.8 0 .8-4-.8.5-.2-.6-.4-1.3-.8-1.8-.4 0 1.2 2.4.4 2.8.3-.2-1.5-2.5-2-3-.6 1.4 0 .3.2 3-.4-.4-.6-.8-.6-1.4 0 2.1 0-.4-.6-.8l.1 1c-.7-.2-.6-1.1-1.6-1.4 0 2.8-1.5 0-2.2-.3.2 0-.2.9.3 1-.5.7-4.3-.7-4.7-.8.3.7-.9.3 0-.3-1-.1-1.3-1-1.7-.6l-.5-1.7c.3-.3.6-.2 1 .5 0-.3-1.4-2.3-1.4-2.4.1 3.2-1.8.4-1.7-1.3-.4 0-1 0-.4.2-1.1.2-1-1.6-.8-2.5l-.4.8-1.3-.7c.3.3.3.4 0 .2 0-.7.4-2-.9-1-.5-1 1-2.5-.2-3.4 0 2.5-2.1 0-1.2-.9.4-.4.2.5.2.5.4-.6.4-1-.4-.6-.1-1 0-1.8-.3-2.8-.5.9.4 1.4-.5 2.1-.8-.6-.8-2.2-.7-3.4 0-2.9.9-1.6-.5-3.4 0 0 2.2.2 1.3-.6-.2-.2-.4.2-.7.2 0-1.3-.5-2.4 0-3 .4 1 .5 1 .7 1.1.5-.4 0-2 0-2 .4 0 1.5 3.2 1 1.1.4-.5-.4-1-.8-1.5.5-.4.8-.2 1 .5.2-.6-.4-.7-.7-1.1.3-.2.6-.2 1-.1-.3-1-.1-3-1.2-2.8 1-.6 1-1-.2-1.4-.5.8.4 2.3-1.4.5-.4.6.7 1.8-.6 1.1-.7-.4-1.6-.6-1.7-1.7 0-.3 1.2-.2 1.4-.3-.3-.8-1.3-.4-1.2-1 .4.6.1-2.6.1-2.6-.3.6-.6.6-1 0 .7-.5 1.4-1.7 1.1-2.3.3 0 2-.8 1.4-2.1a1 1 0 0 1-.5.6c.2-.5.2-.6-.2-.3.1-.7.5-1.2.3-1.8.6.1.8.1 1.1-.5-.5-.4-1-.4-1.8.2 0-.8.1-1.2.7-1.3 0 .3 0 .7-.2 1 .4 0 2.7-1.4 2.7-2.4l-.8.5c.5-1.8.8-.4 1.2 0 0-.1.2-.3.5-.4.2.3.2.5 0 .8.4-.1 1-1.9 1-2-.2 0-1 .1-1.2.3 0-.5.7-2.3 1.3-2.2.4.1.2.4.6.6.5-.4.6-.9.2-1.2-.5.4-1 .5-1.4 1-.4-.6.7-2-.3-2.4-.4 1.4-.7 1.6-2.2 2.7.5-1.1-3.7 2.2-2.3 2.4-.2.6-1.6 0-1.7.2-.3.3.3.4.4.4-.8 1.5-2.5 1-2.7.3-.5.8-4 2.2-3.7 3.1.8 0-1-.3-1.5.8 1.5-.6-1.9 2.5 1.3-.3 0 .5-2.9 3-3.3 3.2-.1-1.1 1.5-1.6 1.5-2.6-.6 0-2.7 2.4-2.2 1 .2 0-.1.2 0 .3 1.4-1.3 6.5-5 7-6.6 1.1-5-5.8 0-7 .6-3.5 1.7-3.8.6-3 4-1.8.4-6-7-4.6-7.9 0 .4.2.3.5-.4-.2.6-.3 2.6.5 3 0 0 .7-.9.4-.8 0 .6.3 1.6-.1.9-.2.8.7-1.7.5-2 .7-.3 0 .4.9-.7-.2.8-.1 1 .3.5.2 0 1.5-3.1 1.7-3.8-.6.5-.9 1.3-1.5 1.4.3-1.2 1-1.7 2-1.7-.3.5 1.6 3.4-.7 3.6.7-1.8-.9 1.7-.7 2.8.2-.5.4-.5.6-.4.1-1.3 3-6.4 1.7-7.6.5.1 1 0 1.3-.4-1 2.5-2.3 5.2-2.9 7.7 2-1.2 1.8-1 0 .8 0 0 8.3-8 12.4-4.7.2-.6-5.2-.5-5.6-.3-.7.2-4.5 3-2.9 2.2 0 .2-.6 2.7-.3 2.9 2.6-4.5 5.6-.4 8.7-1l-1-.3c1.2-1.2 4.7-.9 6-2.1 2.4-2.4 1.7-6-1-8-1.5-1.3-8.7-2-8.7-1.8 1.2.2-.5-1.3 2-2.4 0 .4-.2.6-.6.8.5.8 6 .5 6.7.2-.5-1-1.6-.3-2.3-.1.2-.3.5-.6.9-.6-.5 0-.7-.1-.7-.5 5.4.2 9.6 2 10.8 7.7 1.1 5.6-1.8 9.5-4.4 14-3.2 6 1.2 4.1 4.9 4 2.7-1.9 12-1.2 16.6 0a39 39 0 0 1 16 8.6c-.5-.4-.5-.8 0-1 0 .6 0 1.7.4.9V63c.8-.9 1-1.6 1.1-2.8-1 .5 1.6 0 .7-.1-.5 2 1.3-.4-.5 2.2.2-.2.1 0-.2.7.4-.9 1-1.6 1.6-2.3-.3.8-1.6 2.2-1.6 3.1.6-.9 1.2-2.2 1.8-3-.1.7 0 .6.3 0 .3.4.2.7-.2 1.1-.2-.1 0-.3 0-.4-1.6 2.9 0 4.8-.8 7.5 2-1.2 0 4.4 1.6 4 .5 2.4 0 4.3-2.4 5.3 1 0 1.8-.5 2.4-1.3-.3 1.1 4.5-5.6 3.3-6.2 0 .3.6-6.1 1.5-5.6.4.8.2 1.5 0 2.3-.2.7.3-.7 0 0zm-49.2-38.7c.7-.1.3-.2 0 0zm-.6 0c.6-.6-1.3-1-1.6-.7.2-.1 1.2 0 1.6.7.2-.2-.3-.5 0 0zm1 .7c-.8-.5-1.5-1-1.7.1.5.1 1 0 1.7-.1-.3-.2-.2.2 0 0zm.8 1c-.5-.7-1.2-.4 0 0-.1-.2-.3 0 0 0zm.3.5c-.3-1.3-.5.3 0 0 0 0 0 .1 0 0zm-18.9 9.4c.5-.6.6-.3.3-.8-.4.2-.5.4-.3.8.1-.2 0-.2 0 0zm2.5 2l-1.8 1.5c.4.4 1.8-1.4 1.8-1.5-.5.5-.3.9 0 0zm10.7 2.5c-.1-.4-.5.3-1 0l-.1.4c.5.2.8 0 1-.4 0-.1-.1 0 0 0zm0-.5c-1 0 .2.3 0 0 0 0 .2.2 0 0zm9.4-4.1c-.6-.6-1-.1 0 0-.2-.1-.3 0 0 0zm0-2.1c-.3.4-.3.7 0 .8v-1zm.6-4.1c0 .6 0 .4-.3-.8-.3.4-.2.6.3.8 0 0-.6-.4 0 0zm-1.8 1.5c0 .4 1.3 2.4 1.8.7-.6.2-1.2 0-1.2-.8.9.8 1-1 .1-1 .2.2-.7.7-.7 1.1zm-.5 1c.3 0 .5-.8.2-.8 0 .2 0 .5-.2.8.2 0 .1-.3 0 0zm-.6-.2c.4.7.5-1 .5-.8l-.4-.3v1.1zm0 1c.1.6.2.5.3-.4-.5-.4-.6-.3-.4.3-.1.2 0 0 0 0zm1-.4c.2 0 .1.8.3 1 0 0 .3-1-.3-1.4-.3.3-1.3 2.7-1.2 1.8-.3.2.7 2 .7 2 .5-.7 1-1.3.6-2.1 0 .2-.5 1.5-1 .6.8-.2 1.1-.7 1-1.9 0 0 .1.7 0 0zm0 6.4l.2-1c-.5 0-.6.3-.3 1 .1-.3-.2-.3 0 0zm-1.4 2.5l.4-.5c-.3-.1-.4.1-.4.5zm-3.8 7s-.9-.4-.7-.5c0 0 .8 1.2.7.5zm.1-.2c.1-.9.4-1.2-.3-1 0 .1-.2 1 .3 1 0-.4 0 0 0 0zm.8 4.7c-.4-.7-1.3 1.3 0 0 0 0-.3.3 0 0zm.1-8.2c-.5 0-.7 1.6-.7 1.8.7-.3.7-1.1.7-1.8-.2 0 0 .2 0 0zm.4-1.8c-1 1.2 0 .2 0 0-.2.2 0 .2 0 0zm.6 1c-.2-.3-.6.5-.5.7.3-.1.4-.3.5-.7 0 0-.1.2 0 0zm.6-2c-.3.1-.6.7-.4 1.1.4-.3.5-.6.4-1zm.2-1.6c-.6.3-.7.8-1 1.3.6-.3.8-.7 1-1.3zm-1 19.7l.4.4c.2-.3.2-.3-.3-.4zm37.8 4.3c0 1 .4.3 0 0 0 .2 0 0 0 0zm-.7 2.8s0 1.1.3 1.1c0-.2.3-1.7 0-2-.4.2-.5.5-.3.9 0 .3 0-.2 0 0zm-1.2-1.1c.6.5 0-1.6 0 0 0 0 0-.1 0 0zm-1-9.7c1.1 1.1.2-.2 0 0 .2 0 .1 0 0 0zm-.8 5.5c-.3-1.8-.3 2.3 1 1.5 1-.6-.5-1.6-1-1.5-.1-.2.2 0 0 0zm1 2c.5.4.5-.3 0 0 .1.1.2 0 0 0zm-4.7-10.7l1.4 1.7s-1-1.7-1.4-1.7c.5.5.2 0 0 0zm-2 1.3c2 .9.1 2.9 1.8 3.4.2.1.5-1.4 0-.6-.2-.6 0-.7.3-1.4.5.8 2.3 3 .8 3l.9 1.5c.5-.2.6-.6.4-1 .3 0 1.3 1.7 1.3 1.8 1.1-.6-3.7-6.3-3.5-5.2-.6-1-1-2.3-2-1.5.2.2.1 0 0 0zm2.9 4.7c-.7.5 0 .5 0 0-.3.1 0 .1 0 0zm-1 3.3c-.2.5 0 .6.4.4 0-.5-1.2-1.1-1.2-1.3.7 0 1-1.5.4-2.3-.2.2-.4.2-.6 0 0 .7.3 1.8 0 2.3-.5 0-.9-.2-1.1-.8-.1.3 2.2 4 .5 3.3 2 1.6.8-2 1.6-1.6 0 .2 0 0 0 0zm-2.4-3.2c1-.8 1.1.5 1.2.5.3-.9-.7-1.7-.8-2.4-1.3.7 0 .8-.4 2 0-.2 0-.3 0 0zm.8-3.3c.3-.2-.4-.7-.6-.8.5.4.7.9.7 1.5.5-.1.5-.3-.1-.7.3-.2.2.2 0 0zm.2 1.4c.7 1.1.4-.3 0 0 .1.1.1-.1 0 0zm-1.2-2.2c-.1.6.4.9.5 1.3-.1-.4 0-1-.5-1.3zm.2 4.3l.3 1c.2 0 0-.9-.3-1 0 .5 0 0 0 0zm1.8-.5c.4-.6.3-1-.3-1 .2.2.2.6.3 1 .3-.3 0-.4 0 0zm.6-.8c-.3.6-.2 1 .3 1.1.1-.4 0-.8-.3-1 0 .2.2.1 0 0zm-2.7-6.1c0 .4 1 1.2 1.2 1.1-.1-.2-1-1.2-1.2-1.1 0 .1 0 0 0 0zm0 .6c.9 1.2 0-.3 0 0 0 .2 0 0 0 0zm-.3 1.2c.7 1.5.2-.3 0 0 0 .2 0 0 0 0zm0 5.4c-1-.8.5 4-.6 2.2-.5 1.3 2.4 3 1.8 4-.5 0-.3-5.5-1.1-6.2-.1 0 .2.1 0 0zm-.5-3c.4-1-.1.6 0 0 0 0 0 .2 0 0zm.5 1.5c.2-1.7-.6.3 0 0 0-.4 0 0 0 0zm-3-7.5c.2.9 1.2-.2 0 0 0 0 .1 0 0 0zm-.6 1.4c1 1 1.5 1 2.3 1.4-.1-.8.3-.6 1.2.6-.6-.9-2-1.3-1.6-2.4-.6.5-1.9.5-1.9.4.4.4.1-.1 0 0zm2.5 8.7c0-1 .3 0 0 0 0-.3 0-.1 0 0zm0-5.7s-.7-1-1-.3c.3 0 .7.1 1 .3zm-.3 3c0-.5-.2-.8-.6-1-.3.7-.2.8.6 1-.2-.8-.2 0 0 0zm-.4.7c-.2-.5 0-.6-.6-.6l.4 1.1c.7.1.7 0 .2-.5zm-2 3.3c.5-.1-.1-.7-.2-.5-.4.4.2 1.5.2.5.1 0 0 0 0 0zm-.3 1.3c-.2.7-.2 1 .2 1 .3-.6.2-.9-.2-1 0 .3.1 0 0 0zm.7-9.2c.3.3-.2.1 0 0 .1.1-.5.2 0 0zm-.3 8.4c.8.2.5-.3 0 0 .2 0 .1-.1 0 0zm1-5.2c0-.4-.4-1-.8-.7l.7.7c.1-.3-.2-.2 0 0zm.1-.7c-1-1-.5.3 0 0 0-.1-.4.2 0 0zm-1.5-4.3c1.4.5.1-.3 0 0 .2 0 .1-.1 0 0zm-.6.5c-1 .2 0 1 .7 1.1-.1-.4-.5-.8-.7-1-.2 0 0 0 0 0zm-.7-3c0 .3.3.5.6.3-.1-.3-.4-.2-.6-.3zm-.6 2c-.3-.3-.6-.5-1-.6 0 0 1.8 2.3 1.8 1.2l-.8-.6c-.3-.2.3.2 0 0zm.5 1.1c-.8.1 0 .6 0 0-.1 0 0 .2 0 0zm-1.8-2.3c.6.5.3.4.6 0 0-.5-.2-.5-.6 0 .1.2.2-.1 0 0zm0 4c.1.6-.6 0-.7.5.1-.4 1.7 1 .8-.3l2.4 1.4c-.4.3-.5-.2-.7 0 0 0 1.8 1 1.8 1.2-1.1-1.5-1.4-1.3-1-2.4-.3-.3-1.3-.2-1.3.5-2-2.4-.1-.2-1.4-.9 0 .1.4.2 0 0zM162 65v.7c.3-.4.3-.6 0-.7zm0-1.3c-.5-.2-.2 1.3 0 0 0 0 0 .1 0 0zm-.8-2c-.7.3 0 .8 0 0-.2 0 0 .1 0 0zm-.7 4.7c-.3-.8 0-1.3-.9-1.3.3.3.4 1.3.9 1.3-.1-.3-.3 0 0 0zm-.8.2c.2.8.7.3 0 0 0 .2.2 0 0 0zm-3-8.3c-1.1-.5.8 1.5 1.2.8l-1.7-1.6c0 .3.3.5.5.8-.1 0-.2-.3 0 0zm-.4-1c.3 0 .8-.4.4-.7-.6-.3-.4.5-.4.6 0 .1 0 0 0 0zm2.2 0c.6-.5.6-1-.7-1.1l.7 1s0 .1 0 0zm-.8.3l.6.6c.1-.2-.3-.8-.6-.6.2.2.1 0 0 0zm-.7 2c.7.6.5-.4 0 0 .1.2.1 0 0 0zm.3 2.2c.2.3 2 2.6 2.1 2.4 1-.4-3-3.6-2.1-2.4zm2.4-.5c0-.3-.2-.5-.3-.8l-.5.5c0-1-.5-1.4-1.3-1.4 0 .3 1.4 2.4 2.1 1.7 0-.2 0 0 0 0zm.7 6.3c-.2 1.4.2-1.6 0 0 0 .1 0-.2 0 0zm.4-2.4c.2-.7 0-1-.6-1 .7.8-1.3.2.6 1-.1-.4-.3-.1 0 0zM158 54.7c.3.2.7.2 1 .2l-1-.2c.1 0 .1-.1 0 0zm-2-.7c.4 0 1.6 1 .9 1.2.7.2.7-1 1.5-1 .1.3-2-1.2-1.7-1 .3.6-1.6-.3.3.6a3 3 0 0 1-1 .2c.2 0 .4-.3 0 0zm-1 4c1.4.3 0-.7-.6 0l.1.3c.5-.5 1 .3.6-.4.2 0 0 .1 0 0zm.9-1s-1-.8-1.1-.5l1 .5s-.3-.2 0 0zm-3-1.5c.7.5.3 1.3 1.1 1.6-.2-.6 0-.8.7-.6 0-.2-.5-.2-.6-.3.6-.3 1.7.4 1.8.2-.6-.3-2-1.3-2.3-1.2.4 1-.3 0-.7.3.2.2.3-.1 0 0zm-2.3.3c.4.6.7.3 0 .8.4.5 3 1.4 3.3 1-3.4-1-.8 0-.7-.7-.6-.4-2-1.3-2.6-1.1 0 .1 0 0 0 0zm-3.7-.5c0-.3.7.5 0 0 0 .3.1 0 0 0zm-.7.9c.7.8.4.1 2.2.4-.2 1-.2.4.1 1.1.6-.2 1.2-.4 2.3-.2 0-.6-3.9-1.7-4.6-1.3 0 .1 0 0 0 0zm-1.3 1.4c-.3.1-.5.2-.8.1.9-.7.6-.5-1-.3 0 .2.2.2.5.1 0 .4-1.2 0-1.3-.2 1.3 2.7 1.4.8 4.5.3-.4-.2-.4-.3 0-.5-.6 0-.8-.2-.7-.5-.7.4-.7.6-1.2 1 0 .1 0 0 0 0zm-3.2-.8c-.1.1 2.4.4 3.2.1-.2 0-1.6.3-1.3-.6-1.5-.2-.6 1.3-2.7-.4-.3.2 1 1 .8 1 0 0-.2-.3 0 0zm1.4 20.2c-.3.6 0 .7 0 0 0 0 0 .2 0 0zm1.4.3c-.2 1.4 0 .2 0 0-.1.2.2.3 0 0zm2.4 3.7c-.2-.9-.5-1.2-.8-2 0 .3 1 2.9.8 2-.1-.2 0 .2 0 0zm.6 2c0-.6-.3-.7-.5-.5.1.6.3.7.5.5 0-.2 0 0 0 0zm0-.5c.5-.1-.9-1 0 0 0 0-.2-.1 0 0zm12.8-3.2c.9-1.4-6.2-7.3-6-7.5 0 0 2.2-.8 2.6-1.3a8.6 8.6 0 0 0 1-6.1l-1.2 1.6s1-2.5 1-2.9c0-.2-2.4-2.4-3-3.5.7 0 1.6.7 2 .9-.6-1.9-3.3-2.9-4.6-2.7 1 .5-2.2.1-2.1 0-.3 0-2.6.4-2.9 1.3-.4-.6-1.5-.8-2.3-.5 0 .1.4 0 .4.6-.3-.2-.5 0-.5.6.3.2.3-.1.3-.3.5.4.3.4.2 1 .8.4 1 .2.7-.6.6.3 1.3 2 1.6 2 .1-.3.4-1.4-.5-1.2.2 0 .1-.1-.3-.4 1.2 0 1 1.5 1.2-.3.7 2-.9 2.2-.9 2.7-.2 1.7-1.2 5.4-4.2 6.2.1-.3.1-.6 0-.8-.2 0-.5 1-.6 1.2-1.5-.7 2.4-3.5 2.8-4-1.7-.5-.3 0-.1-.8-.5-.1-1 0-1.4.3 0-2 3.8-1.7 3.1-3.6l-.5.2c0 .6.6-.8.2.7-.2-.2-2.5 1-1.8-.6.4.6.3.1.8 0-.1-.5-.8-1.5-.8-1.5-.8 0-1.6.2-.9-.1-.5-.5-1-1-1.8-2.3-.4.3.4 5.8.2 6.9-.6 3.2-2.1 3.7-.7 6.9.8 2 2.8 3 4 4.7 2.6 3.2 4 6.6 8.2 8 4 1.3 6.9.5 6.5-3.3 0 .2-.2.3-.4.2.8-1.6 0-.6.7-1.7 0 0-.1.2 0 0zm-14.8-15.7c-.6.1-.8.7-.2.9l.2-.9c-.2.1 0 .3 0 0zm-1.2 3c-.7-.2-.7.3 0 0-.2 0-.2.1 0 0zm-.1.4c-1.2.3.3.5 0 0-.3 0 0 0 0 0zm16.3 10.8c-.2-2-.5.2 0 0 0-.2 0 0 0 0zm.2-1.8c-.1-.3-1-2.2-1.4-2.4.2 1.3.9 2.2 1.2 3.3.3 0-.1-1.8.2-1-.1-.3 0 .3 0 0zm-.1-6c-.4.3-.4.5-.1 1.5 0-.5.6-1 0-1.4zm1.2 5c1.1-.8-.5-3-1-3.8.2 1.2.2 2.8 1 3.9 0 0-.1-.1 0 0zm0 1l.6 1.5c0-1.7-.3-1.1-.5-1.5 0 .6 0 0 0 0zm.6 3.8c-.2.7-.1 1.2.2 1.7.1-.5.1-1.1-.2-1.7-.1.3.3.3 0 0zm1.3 0c-.2-1.2-.6-1-.3-1.5-1.3-.2-.4 0-1.3-.5.2.6.8 2.2 1.6 2 0-.4-.5.1 0 0zm0 .6c-.4-.5.7.6 0 0 0-.1.1 0 0 0zm2.9.5c-.1 0-.7.7-.2.8 0-.2 0-.5.2-.8-.2.3-.1.3 0 0zm.2-3.2c-.2-.6-.2-1.3-.3-2-.5 1-.8.6-.7.6 0 0-.1 1.2.2 1.7.3 0 .2.1.8-.3-.1-.2-.1.1 0 0zm1.1 9c-.6.7-.6 1-.2 1.2.5-.4.5-.7.2-1.1-.1.3.3.3 0 0zm.7-.7c-.6.4-.6.7-.3.8l.3-.8c-.2.3 0 .3 0 0zm-.3 0c.2-.7.3-1.2.2-1.8-.5.5-.5 1.1-.2 1.8.1-.7-.2-.2 0 0zm.8-1.7c-.6 0-.7.4-.4 1.6.3-.3.3-1 .4-1.6 0 0 0 .1 0 0zm.3-3c0-.2-.6-1.6-.5-1.9-1 .1-1.3.9-.7 2.3.1 0 1-.4 1.2-.3 0-.1-.2 0 0 0zm2-1.3c.3.4-1.4-.3-1.7-.5.4 1 .2 1 .9 1.9l.8-1.4c.2.3-.3.6 0 0zm2 1.9c0-.2-.7-2-.6-2.4-1.2.3-1.1 4.3-1.1 4.3.3 0 .6-.9.8-1.1.2.5-.5 3.2.2 3.4.5-1.5.6-2.7.7-4.2 0-.4-.1.6 0 0zm0-2.6c1.2.7-.4-3.5-.6-4l-.3 1c-.1-.3-.3-.2-.5.3-.2-.3-.7-3.9-.2-4.3.2-.1.4 1.7.4 1.8 1.2-.4.5-2.2.5-3.4.3-.1 2.2 7.2 2.2 7.2 0-.8 0-.7.7-1.1-.4.2.4 2 .8 2.2.2-.9 0-2-.1-2.8-1.2 1.5-.3-2.8 0-2.5 0 .5 0 .7-.4.8 0-.9-.2-2.1-1-2.2-.2.5 0 1-.4 1.3-1-.6-.6-2-.3-2.3l.2 1.2.3-.2c0-2-1-5.8-2.4-7.6-.4 1-1.9-.4-2.4-1.3-.4 1.6 2.9 3 .7 3.8 0 .4-.2 1.3 1 .4-.2 1-1 0-1.4 0 1.5 1 1.2 2.7 1.5 3.2-.2.4.9.7-.4 1.4-.1-3.6-.2-1.2-1.6-3.9-.4.7-.3.6-1.3.5.3.8.3 1.5.1 2.3-.8-.2-2-2.5-2.8-3.2-.6-.4.8-1.7-.9-1.7-1 0 .5 1.6-.5 1.1.1 1-.6 3.4-1.4 1.1-.2 0 1.5 4.7-.1 3.4 1 1.7 1.3-1 1.5-1.4.2 0 .6.9.6 1.2 1.4-.2 1.2 1 .8 2-.7-.3-1.2-.8-1.5-1.4l-1.5.6c-.3-.5-.2-.7.1-.5-1.5-1.4 1-4.9-1.3-5.5-1 1.7 1.4 2.1-1.2 3 .2 0 .3.2 0 .3 1.8-.2 2.2 3.3 2.3 4.8.7 0 1-.8 1.4-.9 0 .1 1.4 2 1.1 2 .9-5.8 0 0 .6-1.9.8.5 1.3 3.6 2 3.8 0-.4.4-1 0-1 .5-.4.7 1.7.8 2.1.5 0 0-2 .2-2.5 1.2.9.6 2.1 1 3 1.7 0-.5-3.7-.7-4-2.2.8-.2.6-1.2-2.2 1.1.5-.4 1.3 1.2.7l-.3-3.2c.3-.2 2 7 2.4 7.3 0-.4 0-.8.4-1.2.2-.1.5 1.8.9 2.2v-2.6c.5.3 2 2 1 2.8.3.2.4-.3 0 0zm2-.8c-.8.7.7.3 0 0 0 .1 0 0 0 0zm-.3 6.2c-.6-1.9-1.9.6-1.4 1l1-1.4c.2.3 1 1.8.4.4 0-.3.1 0 0 0zm1.5-1c-.4-.9-1.4 1.1-1.2 1.2.6.3.8-1 1.2-1.2-.1 0-.5.1 0 0zm0-3.3c-.3-1-2.2-.5-3-.8 0 .9.3 1.4.8 1.9.2-.4.4-.7.8-.8.4 0 0 1.6.1 1.9.9-.4 1.6-1.2 1.3-2.2 0-.3.2.6 0 0zm.2-3.4c.4-.3.8-1.3.4-1.7.2 0-.7 1.3-.4 1.7.5-.4-.2-.3 0 0zm1.2 4.5c.2-1.2-.7 0-.8.8.4-.2.7-.4.8-.8zm1.1-4.8c0-1-.8-1.4-1.2-2.3v4.1c-1.2.1-1.4.4-1 2 .4-.2.6-.6.9-.9-.4 2 1.3-2.1 1.3-3 0-.1 0 .5 0 0zm.2-1c0-1-.6-.6 0 0 0-.3-.2-.2 0 0zm.1 1.3c-.3.3-.2 1.2-.2 1.6l.2-1.6c0 .2 0 .6 0 0zm0-4.4c.4-.6 0-1.4-.4-2-.2 1 0 1.2.4 2 .2-.3 0-.2 0 0zm1.3 3c-1.7-.7-.6.7-.3 1.3l.3-1.2c-.3-.2-.3.3 0 0zm.2-13.3c.1 0 .7-.7.3-.8 0 .3-.2.6-.3.8.1 0 .1-.3 0 0zm1.5 18.6l-.2.5c0-.1.6-.1.2-.5zM166 113.6c-1-1-6.4.6-7.7 1.6-2.1 1.6-7 6.1-8 8.4-1.8-.4.4-4.4.9-5.1.8-1.3 1.8-.1 2.2-.4.5-.3-.2-.7-.4-.8.3-.3 1.1.2 1.2 0 .9-1-2.1 1.5.5-1.6-.7-1.1-11 6.6-10.9 6.7-2-1 2.2-7.7 4.3-6.5-.3.2-.9 1.1.2 1-.4 0 1.7-1.8 1.5-1.7-.3.4.3 1 .8.7.2-.5 0-.7-.6-.7 1-.5.9.8 1.5.4l-.2-1c-2.9.7-6.1.6-8.2 2-.6-1.5 2.3-3.2 3.7-3.1-.2.2 0 1.3.6.9.2-.5.1-.8-.4-1a9 9 0 0 1 2.3.4c.2-.2.2-.5-.2-.8.6-.6 3.8-.8 4.2-.8-.2.2-1.8.6-1.8.7 0 .2 2.3 0 2.5-.4 0-.4-.4-.5-.7-.3a3 3 0 0 0 1.8-1.2c-4.2-3.3-18.4 4.4-18.3 4.5-1.4-2 1.7-4.2 3.2-4.8-.3-1-6.5 3-5.2-.2-1-.6-1.9 1.1-2.3 1.6-2.1-1.6 2.8-3.6 3.7-4-.8-.6-1.6-.6-2.4 0-.1-3.7 7.4-.7 8-.6.1-.2 0-.2-.3-.3 2.8.3 3.8 0 5.6-2.2.6-.7 2.2-4.7 1.5-5.3-.5 1 .1-.4-.6.7.1-1.6-.3-3.2-.3-4.8.1.3.3.4.6.4-.2-.4-.3-.9-.2-1.4l.3.2a3 3 0 0 0-.4-1c-.9 3.9.1.4-.5 1.3 0-.5-2-5.4-1.6-5.4l4.4 1.7c2.4 1.7.7.6 1.6 3.2.6-.5.5-2.1.5-2.5 1 .7 5.5 3.3 2.8 4.7 0-.8.5-1.5.6-2.2-.4 0-.5.3-.5.6l-1-.5V96c-.4 0 0-.3-.2-.3-.2.4.6 2.8 1-.3.8 1.8-.4 1.9-1 3-.2-.8-.2.5-.5.7 0 .6-3.6 4.9-2.8 7.3.7 2 3.4 2 4.9 4 1.2-2.5 2.1-5.2 2.5-8 .2.3.4.5.4.8.8-.8-.3-1.3.2-2 .3.4.2 1.3.3 1.8.6 0-.3-.4.8 0 .3-.3-.3-2.3 0-3-.5-.2-.3-1.2-.9-1.1 0-.3 0-.6-.2-1 .3.3.7.5.8 0 .3 0 1.3 3.3.9 2 .6 0 .3 1 .8.8-.3-2 .9-.8-.4-1.6 0-1.4-.5-3.6-1.9-4.4 0 .5-.4 1.5-.6 2 0 0-3-6.7-3.1-5.8.4.3.3-.3.6-.7.8 1 2.1 4.5 3.3 3.6-.3-.3-.4-2.9-.2-3.3 1 2.4 1.6 4.5 2 7.3.5 0 1.3-1.3 1.4-1.5.3.2.1 1.3 0 1.6.3.2.2-.6.5-.6-.4 3-.3 0-.7 1.2.7 0 .2 1.5.1 2.2.2 0 .4-.2.5-.4-.2.3-.3.5-.1.6l1-1.5.4.5.4-1.3c.1.7.3.3 0 1.4-.4-.7-.4.3-.6 1.2-.2-.5-2.3 3.5-2.6 4.2-.5 1.4-1.9 5-.8 6.3.8.9 4.1.4 5.5 2 0 0-.2-.3 0 0zm-7.3-19.8c-.2.2.6.7 0 0 0 .1.1.1 0 0zm2.5 7.2c.5.1.2-1.5 0 0 0 0 0-.2 0 0zm-.3 2.6c.8.2 1-.6.7-2.3-.4 0-.7 2.2-.7 2.3 0 0 0-.3 0 0zm-.5-.4v-1.3c-.2.4-.3 1.2 0 1.3zm-12.7-10c.3.8.7.6 0 0 0 0 .5.4 0 0zm.7 3c-.3 0-.3 1.6 0 0 0 0 0 .2 0 0zm-3 11.6c.2.5.9-.5 0 0 0 0 0-.1 0 0zm-.6 0c0 .5.7 0 0 0zm-1 0c1 1 .4-.3 0 0 .2.2 0 0 0 0zm-.9.2c.6 1.3 1.2-.7 0 0 .2.3.2-.1 0 0zm-.8 0c.1.3.3.4.7.4 0-.3-.3-.4-.7-.4zm-.7.2c.4 1 0 0 0 0 .1 0 0-.1 0 0zm-.6-1c1 .3-.2-.1 0 0zm-.3.9c-.2.4 0 .5.8.4-.2-.4-.5-.6-.8-.4 0 0 0-.1 0 0zm-.6-1.2c1 .7.2-.4 0 0 .2.2 0 0 0 0zm-2.5 0s.5-.8 0 0c.1 0 .1-.3 0 0zm-.8 1.8c-.3-1.1.1.5 0 0 0-.2 0 0 0 0zm.7 0c.1-.5 0-.8-.5-.5 0-1 .3 2 .5.6.1-.2 0 0 0 0zm.7 1.2c-.4-.2-.8-.1-.8.2.2 0 .5 0 .8-.2zm.1-1.5c0-.3-.4-.7-.4-.1 0 .7.5.5.4 0zm.1-1.3c.6 0 .7 0 .2-.5-.4-.7-.4.3-.2.5zm1.2 1.5s-.9-1.1-.9-.3c.3.4.5.5.9.3-.2-.2-.2 0 0 0zm0-1.7l-.4-.3c-.1.3 0 .5.4.3zm.4 1.8c.7.2.5-.7 0-.7-.5.2-.5.4 0 .7zm1 1c0-.3-1.8-.2 0 0 0-.1-.2-.1 0 0zm-2 2.4s-.9.4-.7.7l.8-.7c-.6 0-.4.3 0 0zm.9-.2c-.3-.5-.8-.6-1.3-.2.5.2.9.3 1.3.2-.2-.3-.1.2 0 0zm.8-.4c-.2-.3-.5-.4-1-.3 0 0 1.2 1.2 1 .3 0 0 0 .1 0 0zm.5-.9c-1-.5 0 .6.1.8.4-.3.3-.6-.1-.8-.1 0 .4.3 0 0zm1.1 0c0-.5-.4-.6-.8-.4.1.3.5 1 .8.4 0-.4 0 0 0 0zm.7-.6c0-.3-.4-.4-.7-.2.1.6.8.5.7.2zm.8-.3c0-.2-.6-.6-.7-.2.3.6.6.6.7.2.1-.1 0 .1 0 0zm1.4-1c-.5 0-.5.5-1.3.3.1 1.4 2-.1 1.3-.2-.2-.1.2 0 0 0zm1 0c-.2-.2-.5-.2-.7 0 0 .2.8.7.8 0-.2 0 0 0 0 0zm.7-.2c-1-.6-.6.4 0 0-.2-.2-.2 0 0 0zm1-1.2c-.5-.8-1 .9-.8.9.2 0 .7-.8.7-1zm.4-.6c-.5-.4-.6-.3-.4.2-.5 0-.3 0 .4-.2-.2 0 0 .5 0 0zm.4-.8c.4-.6-1 1.8 0 0 .1 0-.2.3 0 0zm.1 3.3c-.2-.4-.2-.5-.4-.3.2 0 .3.2.4.3zm.2-4c-.2-.7-1 1 0 0 0-.2 0 0 0 0zm2 2.4c-.6.8 1-1.2 0 0 0 0 .2-.2 0 0zm2.4-12.6c.8.6.4.3.4-.3.4 0 .4-.4-.3-1-.3.5-.3 1 0 1.3.1.1-.3 0 0 0zm-1.7 1.7c0 1.5.5.8 1.2-.2.1.3.2 1.5.4 1.4 0-.5.1-1 .5-1.2l-.2 1.3c.2 0 1.2-1.5-.3-1.9-1.5-.2-.8 1.6-1.6.6 0 .8 0 .2 0 0zm-1.3.3c.2-.8-1.2-.6-.1-.9-.6.3-.5 1.2 0 .9.2-.3 0 0 0 0zm0-2.6c-.6-1.1 1.2 0 1.2 0 0-.2-.8-3.2-1.4-2.5-.4.5-.2 1.5-.5 2-.1-1-.5-1.3-.9-1.1 0 .7.3 1.2 1 1.6 0-.4 1.2.8.7 0-.1 0 0 .2 0 0zm1 14.4c-1.1 0 .2-.1 0 0-.1 0 0 0 0 0zm.9-1c-.6-.7-1 1 0 0-.1 0-.1 0 0 0zm.8.2h-.8c.3.5.5.5.8 0zm.6.3c-.8.2-.8.4.1.8.1-.3.1-.6 0-.8-.3-.1.2.2 0 0zm1 .5c-.7 0-.4 1 0 0-.3 0 0 .2 0 0zm-5.8 4.7c0-.5-.4-.5-.9 0 .4.6.7.6 1 0 0-.1 0 0 0 0zm2.7-1c-.2-.1-1.6.3-1.6.4.7.9 1.9-.3 1.6-.4zm-5.8 5.7c-.6-.3-.6.4 0 0-.2-.1-.2 0 0 0zm1.3-1c-.4-.4-.8-.4-1.1 0 .7.7 1.5.2 1.1 0zm1 0c0-.9-.5-1.2-1.2-.8-.3-.2 1 1.4 1.1.8.2-.2 0 .1 0 0zm2-1.7c-.1-.2-.9.1-1 .2.5.6 1.6.8 1-.2 0 0 .4.6 0 0zm2.4 3.3s-.7-.3-1 .2c.4.3.6.2 1-.2zm.7-.4c-.7-.6-.7.6 0 0 0-.1 0 0 0 0zm3.5-7.8c.8-.4 0-.3 0 0 .2 0 0 0 0 0zm-.8.5c-.1.2.6.5.8.3-.3-.4-.5-.5-.8-.3zm-.3.7c.4.7.7.8.8.1 0-.6-.6-.3-.8 0 .2 0 0-.2 0 0zm-.4.3c0 .7.3 1 .8.5-.2-.5-.5-.7-.8-.5 0 .3 0 0 0 0zm-2 2.7l-.6-.7c-1 1.3.7 1 .5.7 0-.3.1.2 0 0zm1-.8c.2-.3-1-.8-1.3-.1.5.6.8 1 1.3 0 .2-.1 0 .4 0 0zm.9-1c-.3-.3-.7-.3-1 .2.5.5 1 .8 1-.2 0 0 0 .2 0 0zm.4 3.3c-.2-.3-.4-.3-.7.1.2.4.5.4.7 0-.1-.2-.2.1 0 0zm.7-1c-.3-.1-.5-.1-.8 0l.3.7s.6-.5.5-.7c-.1 0 0 .1 0 0zm1-1.2c.1-1-1.4.7-1 1.1.3.2 1-1 1-1.1 0-.1 0 .3 0 0zm1-2.3c0-.2-1.5 1.2-1.1 1.5.7.5 1-1.2 1-1.5 0 0 0 .2 0 0zm.2-.8c-.3-.4-.6-.4-.8.1.2.4.5.3.8 0 0-.2 0 .2 0 0zm0-.7c-1.1-.4 0 .7 0 0zm0-.8c-.3-.3-.5.8 0 0 0 0 0 .1 0 0zm-23.5-33.4zm-3.3 1.8c-1.4-1.2-1.4-1.4 0-.2-.3-.4-2.8-3.6-2.5-2.5-.5-.5-4.2-3.5-3.7-4 .2.6.4.8.6.6-.2-.3-1-2.8-1.4-2.5.5 1 .9 1 .7 1.9a3 3 0 0 1-1.1-2.7c.7.7-.4-.4 1.2.7.2-.2.1-.5-.4-.7.2-.2.4 0 .5.4.5-.5-1.1-1.4-1.2-.8-.7-1.2-.1-2-.5-3-.6-1.5-2.4.7-1.8-2.6.2.8.2 1.2.4.6-.2.3 0 .6.3.7.3-1.6-2.5-11.4 1.3-10.5-.8 1.7-2.3 4-1.7 6 2.2-3-.6 3.7 1.4 3.1 0 0 .3-2.3.5-2.1.3.2.5 4.2.5 4.5-1.2-1.4-.1-1-1.4-2-.2 2.4.5 1.3 1.3 3 .4-2.2 1.6 2.1 2.3 2.5.2-.6 0-.6 0-1.3 1.1 0 .2 1.8 1.1 1.5-.5.6.3 2.3 1 2.7l-.6-2.2h.7c.2.1.7 2 1 2.6 0 0 0-.8.2-1 1.6.6-.4.6 1.2.8 0-1-.8-1.3.1-1.9-.5 0-.6-.3-.3-.8 1.1-1 1.4 1.8 1.4 2.2-1.4-.8-.2 1.6.3 1.8.6-.5-.5-1.3.3-2.2-.6-.4 0-1.5-.8-1.6.2.3.2.4 0 .4-.6-3 .8-1.5 1.4-3 .4 0 .6 2.1.9 2.6l.5-.5.3 1.1c-.3.7-1.4 0-1 1.9l.4-1.4c0 1 .2 2.5-1.3 3 0 0 2.6 3 1 3 0-.2-.8-1.9-1.5-1.2.2.4 1 2.3.5 1.6-.7.5.6 1.7.9 2 .4.6-.7.1-.7.1 0 .4 1.3 3 .9 3.2a16.3 16.3 0 0 0-3.2-3.8zm2.4-6.1c.5.4.6.5.9 0-.4-.2-.6-.2-1 0 .3 0 0-.1 0 0zm-.4-3.6c.2.4.9.7 1.2 1-.1-.6-.4-1.8-.8-2.3-.1.4-.1.7-.6.3-.2.5-.2.8.2 1 0 .1-.2 0 0 0zm-4.6 6c-.3-.6-.3-.8-1-.8.1.5.6.7 1 .8-.1 0-.2.1 0 0zm.6-1.5l.6.7c.2-.6-.2-.6-.6-.7zm1.1.5c-.3-.8-1.2-1.1-1.7-1.8.6 1.4 1 .8 1.7 1.8-.1-.2-.2-.3 0 0zm2.4 3c-.2 0 .1 1.5.5 1.7 0-.1.2-1.5-.5-1.6zm-1.3-6.1c.3-.4.3-.8 0-1.2-.3.4-.3.8 0 1.2.1-.1 0-.3 0 0zm-.4 3c.7.1 1 .8 1.6 1.3-.3-.9-1.2-2.3-2.1-2.2 0 .3.2.6.5.8zm.5 3.8l.8 1c.4-.1-.5-1.3-.8-1 .3.3-.2.2 0 0zm7.6 7.2c-.9.1-2.3-1.3-3-2-.5.9 3.4 3.9 4.2 4.4.4.3 7 2.8 5.9 1.8h1.1c-.3-.7-1.1-.5-1.7-1v.9c-.6-.2 0-.7-.5-1.1-.4-.3 0 .5-.3.4.2.2-4.2-1.8-4-1.4-.2-.7.7-.1.2-1.5 1.5-.5 2 1.5 3.5 1l-1.6-1.5c0 .3 0 .5.2.7-2.4-1.2-2.6-1.6-2.5 0-.6 0-1.1-.3-1.5-.7-.1 0 .3.5 0 0zm23.1 10.5c.2-1.4.4-2.6.4-3.8.3.4 1.1 1 1.3 1 .2-.4.3-1 .2-1.6.4 0 .9 2.2.9 2.2-.4 0-.5-.1-.7-.6-.4.5 0 4.8-1 2.5 0 .2-.2 2-.4 2 .3-2 .2.3-.5-1.3.2.4.1.6-.1.6l-.1-1c0-.5-.1.3 0 0zm.3-.7c.4 1.3 1.2-1.4.4-1.5l-.4 1.5s.1-.6 0 0zm21.7-29.6c.4.4.5.7.3 1.2-.7-1.6-.4.9-.3 1 .6-1.2 1 .7.6 1v-.4c-.6 1-.7 3.8.6 4.2 0-.7 0-3.8-.7-2.5.3-1 .8-2.1 1.3-3.1-.2-.1-.3 0-.5.4-.3-1-.8-2.3.2-3-1 0-.9 1.9-.8 2.4-.7-1.2-.5-2.6-.3-3.9-1.3.5-1 1-.4 2.7.1.3 0-.4 0 0zM136 54.8c-1-.1-1 .2-.1 1-.1 0-.2 0-.3-.2a9.3 9.3 0 0 0 0 3.8l1 2.8c.4 0 .1-.4.5-.4-.2-.6 0-.7-.5-.2 0-.3.2-2-.2-2 .2.5 0 .3-.2-.1.4-.1.7.4 1.1.7 0-.1.2-1.2.4-1.2-.2.4-.3.3-.5-.4.3 2.8-1.6-4.2-1.2-3.8-.2-.2.1 0 0 0zm54.6 8c-.3-1.4.4-2.8 0-4.6-.4-1-2-1.2-2.3-2 1.2.2-2.9-2.7-3.4-2.8.3.4 7.8 7.9 6 7.9 0-3.2-.4.1-.5.8 0 1.8.4 3.2-.3 5 1.2 0 .6-3.8.5-4.4 0 0 0 .3 0 0zm-4-6.2c.6 1.2.9 2.7 1.3 4v-.1c.6-.2.5-.7.4-1.3l.7.8c-.3-1-.4-1 .2-.3-.3-1-.7-2.3-1.5-2.7h.2c-.5 0-.6 0-.4.6-.2-.4-.5-.8-1-1 .2.2.2 0 0 0zm-38.8 28.8c-.4-.2-2.1-.3-2.4 0-.2.3 1 .8 1.2 1-1.1.2.8.5-1.3 0-.2.5 2.3 1 2.7 1 .2-.3-.4-.5-.8-.5.1-.3 0-.5 0-.8l2 1c-.3-.2-.2-.2.3-.2-.3.2-1-1-1.7-1.5 0 0 .1.1 0 0zm17.4 9.1c0-.3-.3-.5-.4-.8.1.6-.3 2.8-.3 1.8-.5.3-1.2 2.9-.4 3 0-.4.1-1 .4-1.4.1.5 0 .4.5.3v1.4c.5.3.5-3.7.2-4.3zm-30.5-61c-.5 2.3-1.7.3-2.5 1 .6.4.7.7.2 1.1-2.7-2.1 2.7-3.5 2.3-2-.1.5 0-.4 0 0zm-.4.2c-.1-2.6-2.4.9-1.5.7.4-.2 1.5.6 1.5-.7 0-.5 0 .5 0 0zm-4.4 34.2c.4-.4.5-.7.7.1-.5.7.3 2 .2 2.2-.3-1 0-1-.7-1.8.7-.5.5.1 1.2.2l-1-1.8c.2.4 0 .6-.1.7-.3-.4-.2-1.1-.5-1.3-.1 0-.2 2.1.2 1.7zm6.3-5.8c-.1-.5-.5-.7-1-.5 0 .1.6 2.9.8 3 0-.2.3-1.5.2-2.5-.1-.4 0 .3 0 0zm-2.9-4.5c.8-.3 1.6-1 1.7-1.2-.3-1 .6-1.7.5-2.4-1.1.5-2 2.6-2.2 3.6.1 0 0-.2 0 0zM136 82c0-.5 1.6-2.3-.5-3 0 .4.6 2 .3 2.6v-.3c.6 0 .2.3.2.7zm2.6-.1zm-1-.5l-.2-1c-1.2 1.6.2 1.6 1.1 2.4.1-1.6 0 0-.9-1.4 0-.3.2.2 0 0zm-2.7-5.3zm-.4.4c0 .8.4 1.4 1 2 0-.2.3-.2.5-.2-.1-.3-1.6-3-1.5-1.8 0 0-.1-.3 0 0zM180 85c.1-.6-2 1.5-2 1.5.7.5 3-1.5 3-2-.4 0-.7.2-1 .5 0 0 .1 0 0 0zm-45-22.2c0-.2-.8-.9-1-.8-.2.3.8 2.5.9 2.6.6-.8 0-1 0-1.8 0-.2 0 .4 0 0zm5.3-3.8c-.2-.2-1.2-.7-1.4-.4 0 0 1 2 1.3 2 .2-.1.2-1.5 0-1.6-.1 0 .3 0 0 0zm-1.8 22.9zm-.2-.4c.2.5.8 1.8 1.6 1.7-.6-2.3-.2-.2.2-.8-.4-1-1-1.2-1.8-1 .1.3.3.3 0 0zM138 67c-.7 1.2.3 1.2.2 2.3.9-.4.7-2.4-.2-2.3 0 .3.1 0 0 0zm5 15.8c.3.4 1.7 1.4 1.8 1.7.7.6-1.5-.3 0 .5.3-.4 0-1 .4-1.7-.4.2-1.9-.7-2.2-.5.1.2.2-.1 0 0zm-2-.3c-1-1.5 1.6 1.6 1.5.5 0-.7-.9-1-1.4-1.4.3.4.3.7-.1.9-.1-.1.3-.2 0 0zm19.8 8.7c-1 .2.4 1.9.5 1.5.2-.6.5-1.8-.2-2 0 .6 0 1.3-.3.5 0 0 .2.4 0 0zm22-8.3c-.2-.4-1.3 1.4-1 1.1.9.1 3-2.7 2.5-2.7 0 .9-.6 1.4-1.4 1.6-.2-.2.8-.2 0 0zm-38-1c-.2-.4-.6-.6-1.2-.6.2 2.6 2.6 0 1.3.7-.2-.4.4-.2 0 0zm-5.4-1.5c-.4-.7-.6-.4-1.3-.6.2 1.2 2 1.5 1.3.6zM124.3 39c.7 0 1.3-1.1 1.5-1.8-.7.1-1.6 1-1.5 1.8 0 0 0-.3 0 0zM189 63.9zm-.3-2.8c-.3-1.5-.1 3.8-.1 3.7.8-1.6.5-1.3 0-3.7 0-.1.2.8 0 0zM118 38.8c-2.4-.8 6-4 5-3.6.2 0-7.6 2.7-5 3.6zm70.7 19.6c.3 1 .5 2.4 1.1 3.4.3-1-.3-3-1.1-3.4.1.1.7.3 0 0zm-50.4 1.9c.8 1.1.6.9.8 2 1-.2 0-2.3-.8-2 .2.3.4-.2 0 0zm-3.2-26c1-.5-.3-.7-.3-1-.1.8-.5 1.4-1.2 1.8.6-.2 1-.4 1.5-.8zm2.1 27.2l-.4 1.2c.4.2.3 0 .5-.4.1.7.6-.3.7-.4 0-.4-.4-.5-.8-.4zm-.6 17c.1 0 1 .4 1.1 0 .1-.3-.6-1.3-.5-1.3-.3.3-.3.6.1.7-.7-.2-.9-.1-.7.5.2 0 0-.2 0 0zM179 57c0-1.2 1.2-2 1.5-3-1.3 1.2-1.5 3.4-1.5 3 0-.2 0 .3 0 0zm-56 10c0-.5 0-1-.3-1.3 0 .6.2 2.3.6 2.8.4-.5 0-1-.2-1.5-.1-.3 0 .3 0 0zm35 24.2c.8.2-.3-1.5-.7-1.8-.3 1-.1 1.6.6 1.8.1 0 0-.2 0 0zm-7.7-2.5c-.8.3.9.5 1 .6l-.8-1.2c-.5.2.4.3-.2.6-.2.1.4-.2 0 0zm-9-8.4c.8 1 .5.7 1.4.6 0-.6-1.2-.7-1.4-.6.2.3.1 0 0 0zM158 100c0-.2 0 1.6.3 1.7.2-.8-.3-2.2-.3-1.7.1.4 0-.2 0 0zm-27-42.9zm.5-.2c.1-.3 1-1.4.2-1.5 0 0-.6 2.8-.2 1.5.2-.4 0 .3 0 0zm-11.1-17.2s-.8.2-.8 1.1c.3-.4.6-.6.8-1.1 0-.1-.1 0 0 0zm4.9 12.2c-.2.5-.5 1-1 1.1 1.2 0 1.7-2.2 1-1zm8.8 8.3c.6.6 0-1.6 0-1.7v1.7s-.3-.3 0 0zm1.7 14c.6 1-.5-2.1-.1-1.8-.6.4-.2 1.1 0 1.7.2.1 0-.2 0 0zm21 20c0 .5.2 1.1 1 .8 0-.4-.3-.7-1-.8 0 .2.5.1 0 0zm-29-29l.5-1c-.4 0-.2-.6-.5-.5v1.5c0-.4-.3-.5 0 0zm55.3-2.6l.8.8c0 .3-1-2.4-.8-.8.3 0-.1-.5 0 0zM163 98c-.2.3-.2.6.1.9l.4-.2c-.7-.7.4-.7-.5-.7 0 .2.1 0 0 0zm-36.7-55.6l.8-1.6c-.2.1-1.3 1.4-.8 1.6.2-.5 0 0 0 0zM134 66c.3-.7-.2-.6-.7-.4.3 1 .5 1.1.7.4zm4-3c-.4.5-.2.7.5 1 .1-.2-.3-1.4-.6-1 0 .1.1 0 0 0zm38.9 23.8a1 1 0 0 0 .9-.7c-.4 0-.7.2-1 .7zm-37.3-42.5zm-1 .9c.4-.3.7-.6.9-1-1.3.5-1.6.8-.9 1 .1 0 0 0 0 0zm-6.5 10c.6 0 1.2-1.1 1.1-1.8a5 5 0 0 1-1 1.9zm50.2 10.2l.5-2c-.4 0-.5 2-.5 2 .2-.6-.2-.7 0 0zm-53.4-14.7c-.5-.3-1 0-1.4 1 .6 0 1-.4 1.4-1 0 0-.1.3 0 0zm-1.9 2.1c.5-1.5-.6.9-.7.9.5-.2.7-.5.7-.9 0-.2 0 .2 0 0zm-.7.9zm-2.7 7.2c.3-.4.4-1 .3-1.4-.4.4-.5.9-.3 1.4 0-.1-.3-.2 0 0zm11.9-33c-.3-.3-1.1-.1-1.5.2.5-.2 1 0 1.5-.2zm-11.7 27.7c0 1 .3.4 1-1.5l-1 1.5c-.1 0 0-.2 0 0zm10.4 9.8s.6-1.6-.3-1.4c0 .4 0 1 .3 1.4zM121.9 36c.7.3.5.3 1 0-.4-.3-.7-.3-1 0 .2.1.2-.3 0 0zm6 31c1 .5-1.4-.7 0 0 .1.1-.2-.1 0 0zm8-1.1c.3-1-1.2-.3 0 0 0-.2-.1-.1 0 0zm1-20.5c-.4-.3-.9 1.2-.7 1.4.1-.6.3-1 .6-1.4 0-.1-.2.4 0 0zm49.6 25.7c.3-.3.3-1 0-1.2zM141 41.4l-1 1c.4.3 1-1 .8-.5l.2-.5c-.4.4 0 .5 0 0zm-15-7.1c-.5 0-.7 1.7-.6 1.7l.6-1.7c-.3 0-.2.6 0 0zm59.3 21.6l1 .6c-.2-.4-.7-.8-1-.6zm1 .6c0 .1 0 .1 0 0zM127 55.2c-.4-.1-.6.2-.7.7.5.2.8-.4.7-.7zm11.1-12c.5-.4.8-.8.5-1.2l-.5 1.3zm-12.4 11.2c.4-.1.6-.3.5-.7-.9.6-1.1.8-.5.7zm.5-.7zm26.5 35.1c0-.4-.5-1-.9-1 .2.6.5 1 1 1zm-19.7-37c-.3.3-.3.7 0 1v-1c0 .1 0 0 0 0zm2-1.1c-.2-.1-.2-1-.4-.8 1 3.8.3.8.4.8-.1 0 .3.3 0 0zm-2.5 5c0 1.4.1 1.3.3 1.3-.2-.3-.3-.7-.3-1.2 0 .4.1.3 0 0zm48.5-.5l1.5-1-1.5 1zm5.7 7.3c-.4 0-.6.2-.6.6.4 0 .6-.3.6-.6-.1 0 0 .1 0 0zM138 42.3c-.8-1.2.9 1.2 0 0 0 0 .1.1 0 0zm-11.7 22.4s-.3 1 .5.7c-.3-.2-.5-.4-.5-.7 0 0 .1.2 0 0zm21 24.3c-.3.3 0 .5.6.5 0-.5-.3-.7-.7-.5 0 0 .1 0 0 0zm13.4 9c.3-.5.3-1 0-1.1-.3.3-.3.9 0 1 0-.3-.3-.2 0 0zm-3.6-2.4c0 .6.2.9.5.6-.2-.4.4-1-.5-.6.2.2.3 0 0 0zm-27.6-29.8c.4.4.6.5.8.2-.3-.6-.6-.6-.8-.2.3 0 0-.1 0 0zm10-23.6c-.4.3 1.2 1.3 0 0 0 0 .3.2 0 0zm-14.3 14.6l-.3 1c.3 0 .4-.7.3-1zm5-5c-.2 0-.4.3-.4.5.2 0 .5-.2.5-.6zm8.2 14.6c-.8-1.5-.5 1 0 0 0-.2 0 0 0 0zm-6.9-5.8c.4 0 .5-1.5 0 0 .3 0 .1-.2 0 0zm-5.6 4.6c.3 0-.2-.8-.2-1l.2 1s0-.2 0 0zm6.2-12.7c.8-1.2-.4-.3 0 0 .1 0 0 0 0 0zm.6-25c-.2-1-1.6 1.7 0 0 0 0-.2.3 0 0zm-12 12.3l.5-.7c-.4-.3-.7.4-.5.7.2-.3 0 0 0 0zm28.4 48.7c1.6 1.2 0-.1 0 0 .3.2 0 0 0 0zm-12.8-34.6c.5-1.2-.7 0 0 0 .1-.1 0 0 0 0zm23.9 39.9l.5.8c0-.2-.2-1-.5-.8.2.2 0 0 0 0zm-25-48.1c.6-.2.6-.3.4-.7a5 5 0 0 1-.3.7zm-6.5 18.9c-.4-1.9-.5.2 0 0 0-.2 0 0 0 0zM138.9 44c1-.4-1.6.5 0 0 0-.1-.3 0 0 0zm-5.2 22.8a3 3 0 0 0-.5-.8c-.2.5.1.6.5.8zm7.9 10c-.2.2.4 1.7 0 0-.3.4.1.3 0 0zm10 11.7c-1.2-.7.8.5 0 0 0 0 .3.2 0 0zm-19.4-42.2c.1.3.4.2.7-.3 0-.3-.4-.2-.7.3 0 .1.2 0 0 0zm1.3 16.5c.6-.6-.7.7 0 0 .2 0-.3.2 0 0zm-1.7-16.5c0 1.1.6.1 0 0 0 .2.1 0 0 0zm50.6 14c.3.3.4 0 .4-.6-.3-.1-.5 0-.4.7 0 0 0-.2 0 0zm-54.6-1c.4 0 .4-.2 0-.7-.5.1-.5.4 0 .8 0 0 0-.2 0 0zm56.6 16.4c-1 1.8.1 0 0 0 0 .2.1 0 0 0zm2.7-14.3l-.3.6c.3 0 .4-.2.3-.6zm-51.7-34c.3-.3-.7-.5 0 0 0 0-.1 0 0 0zm26.9 67c-.3.4-.3.6 0 .7zm25-21.6c.4.2.5-.2.4-1-.4 0-.5.3-.4 1 0 0 0-.3 0 0zm1.6-5.2c.4-.2.6-1.3 0 0 .1 0 .1-.3 0 0zm-30.2 30.8c0-.3-.3-.5-.4-.7.2.7.2.7.4.7zm21.4-37.8l-.5-.4c.1.4.2.5.5.4zm-42.9-17.2c-.6 1 .2.3 0 0 0 .2.1 0 0 0zm30.5 45.8c-.1.7.1-.9 0 0zm-40.8-30c0-1.3-.2 0 0 0 0-.1 0 0 0 0zm59 6l.7-.8s-.9.6-.7.8c.2-.3 0 0 0 0zm3.2-1.3v.9c.2-.3.1-.7 0-.9zm0 0zm-3 7.4c0-1.5-.4 0 0 0 0-.2-.2 0 0 0zm-3.2-10.8c0-.3.2-.5.3-.8-.2 0-.6.7-.3.8 0-.3-.1 0 0 0zm-52-3.4zm-.1.5c.5-.3-.2-.7 0 0 0 0-.1 0 0 0zm2.8-3c0 .9.4.4 0 0 0 .2 0 0 0 0zm46 6.7c.1-.5.1-.6-.2-.5l.2.5zm-50.8 4.3c-.8-.6-.4.2 0 0-.1-.1-.1 0 0 0zm6.5-11.6zm.4-.6c-.2 0-.8 1.5 0 0-.1 0-.1.3 0 0zm3 9c.4 1 .4-.2 0 0 0 .2 0 0 0 0zm-3-13.4c0 .2 0 .4.2.6.1-.5.1-.5-.2-.6zm49.4 4.5c-1.2-.4-.5.1 0 0-.3 0 0 0 0 0zm-31.9 10.9c-.2-.3-.9-.3-.4-1-.3 0-1.1 1-.8 1.3-.5 0-.2-.2-1.1-.5.3.4-.1 0 0 1 .3-.4.5-.4.6 0-.2.8-.7 1-1.4 1 0-.8-.2-1-1-.6.1 0 .9 1 .5 1.3-.7.3-.4-1-.8-1-1.5 1.5 0 .9-2.1 1.8-.1 0 0-.2.2-.3-1.1 0 .1 1 .7 1l-2.1.7c.8.4-1.3.2-1.2.1 0 0 3.1.8 4.3.1 1.5-.7 3.8-3.6 4.6-5 0 0 0 .2 0 0zm-8.6 10c0-.6-2-1.3-1-1.6 0-.3-1.4-3-1.8-3.3-.4.5-.1 1.3 0 1.9-.2 0-.2-.4-.4-.3-.1-.4.2 1.3.3.8.3.2 2.8 3.9 2.9 2.5 0-.3 0 0 0 0zm2.1-.4c-.2-.3-.5-.4-.8-.5.4.8.8 1 .9 2-.8-.4-.4 0-1.6-.4 0 0 1.6 1.5 2 1.7a5 5 0 0 0-.5-2.8c-.1 0 .1.3 0 0zm9.4 10c-.4-.2-2.3-2-2.8-1.3.6.4 3.5 2.3 3.8 2l-1-.7s.2.1 0 0zm.9-19.9v-1.3c-1.3 2-1.3 2.4 0 1.3 0 0-.2.4 0 0zm.5 2.8c.3-.4.3-1 .1-1.3-.1.8-.5 1.4-1.2 1.8.5 0 .8-.2 1.1-.5.1-.4-.2.5 0 0zm.4 15.6a5 5 0 0 1-1.7-.6c.8 1 2.1.7 1.7.6zm-10-6.5v-1c-1.5 0 .2 1.6 0 1zm-.3-1.6c.1.5.7 0 .7-.2-.5 0-.8-.6-1.2-.6-.6.7.4.1.5.8zm1 1.8c-.8-.1-.8.2-.4.8.5.6.4-.7.3-.8 0 0 .1.3 0 0zm10.2 4.4l-1.5-.1c1.1.2 1 1 1.5 0-.3 0 0 .2 0 0zM145.6 72s-.7-.8-.7-.6c-.1.5.3 1.3.7.6-.1-.1-.1 0 0 0zm2.5 1.5c.5.6.4-.3.5-.4-.6-.3-.8-.2-.5.4.1.1 0 0 0 0zm4.4 8c-.6-1-.4.9.6.9 0-.4-.3-.6-.6-.8-.2-.3.1.2 0 0zm4.4-6l-2.1-.6c0 .2 2 .8 2 .6-.6-.2 0 0 0 0zm.4 2.2c-.4.5-.1.7.6.6 0-.4-.2-.6-.6-.6 0 .1.5 0 0 0zm-8.7-6.6c0-.5-.4-.5-.6 0 .3.5.5.5.6 0 0-.1 0 .2 0 0zm2.8-10.5c.7-.1.7-.2 0-.3-1.3-.5-.1.2 0 .3.3 0-.1-.1 0 0zm.5 2.2c-.2 1.7.2-1.2 0 0 0 .2.1-.3 0 0zm-5.7 8.2c-.4.2-.4.5 0 .9v-1c-.1.2.2.4 0 0zm1.2-11.1s0-.6 0 0c0 0 0-.1 0 0zm2.4 4.3c0-.5-.2-1-.5-.9.3.2 0 .7.5 1zm-1 14.2c0 .2.3.6.5.6 0-.4-.2-.6-.6-.6 0 0 .2 0 0 0zm-2.7-19zm0 0h-.2.2zm0 0c.2 0 .5-1.2 0 0 0 0 0-.1 0 0zm-3 10.5c0-.8-1.4.3 0 0 0-.4-.3 0 0 0zm14.2-1.5c1.4-1.6-.6.6 0 0 .2-.2 0 0 0 0zm-13-6c0-.3-1.5.6 0 0 0 0-.1.1 0 0zm-2-2.5c-.3.4.2.9 0 0 0 0 0 .2 0 0zm-.6 8.7c-.3.3-.2.6-.1 1l.1-1zm7.5 6.2c-.8.1 0-.3 0 0 0 0 0 .1 0 0zm-.9.9c-.4-.2-.6.6 0 0zm-2.5-2.3zm-.3-.4c0 .3 0 .4.3.4 0-.2-.1-.3-.3-.4zm20.5-2.1c-.1.7-.6.4-.9.5-.2-.7-.9-3.4 0-3.3.4 1.7 1 1.5.9 2.8zm-.3-.3l-.2-.5c-.1.2-.1.3.2.5zm5.2 1.5c.2.2 0 1.2-.2 1.6-.3.3-.9-2.5-1-2.2-.4-.3.3-.8.6-.8l.6 1.4c.2 0-.2-.2 0 0zm-.1.4c.6-.2-1 .4 0 0 0 0-.3.1 0 0zm1.7-3.7c0 .7.2 1.5.7 2 .3-.8-.1-2.3-.6-2.9-.4.3-.2.4-.1 1 0 .2-.1-.3 0 0zm-5.3 2.8c-.2.6-.2-.7-.2-1-.6.5-.2 2 0 2.3.3-.4.3-.4.3 0 .4-.4.4-1-.1-1.3-.1 0 0 .2 0 0zm-.6 1.6c-1-1.5.4 1.4.7 1.4 0-.2-.3-1.9-.7-1.4-.1-.2 0 0 0 0zm5.2-5.2c0 .1 1.5 1.1.2-1.2l-.2 1.2c0 .1 0-.3 0 0zm-3.6 3.5c-1.1.6.5.9 0 0-.1 0 .3.5 0 0zm-.3 1.3c.4 1.5.7-.2 0 0 .1.2.2 0 0 0zm2.6-4.8zm-7.9 6c0 .2.4-.6.1-1l-.1 1s0-.4 0 0zm4.2-3.6c-.7-.8-.3.5 0 0-.1-.1 0 0 0 0zm5.2-1.8c0 1.6 0 0 0 0 0 .2 0 0 0 0zm-.5-6.6c.2-.1.4 2.1.5.7l-.5-.7c-.1 0 0 .2 0 0zM133 33.5c0 .2-.3.7.4.5.4-.1-.3-.8-.4-.5zm-14.5 67.1l.7 11.2c-.8-.3-1.6-7.2-2-8.5a41 41 0 0 1-.8-14c-1.7 4.1-.7 10.5.8 14.6-4-1.5-3-11.5-2.4-14.6.6-3 1.7-5.8 3.2-8.4 2 6.3.3 13.1.5 19.7 0 4.1-.1-4.1 0 0zm-3 6c3.5 3.7 7.7 7 11.4 10.5a79.1 79.1 0 0 1-20.7-17.7c1.6 4.2 6.7 8.4 10.4 10.4-4.1 1.6-10-6.6-11.6-9.4a30 30 0 0 1-3.1-8.2c5.8 3.3 9 9.6 13.5 14.3 2.9 3-2.8-3 0 0zm7-3c-.3.9-.7 7.7-1.9 8.1.3 0 .4-5.3.5-6 .4-3.8 1-7.5 2.6-10.9-2.2 2.6-2.9 7.7-2.8 10.8-4.5-3.4 3-13.8 5.7-16.4.1 5.1-2.7 9.6-4 14.4-.9 3 .8-3 0 0zm-24.4 10.8s12.6 4 23.2-2.7c0 .1-13.6-3.6-23.2 2.7zm7.2-.4a37.7 37.7 0 0 1 14.7-2l-14.7 2zm82.5 73.7c-9.5-3.2-21.2.4-30.7 2.1-10 1.8-20.8 3-30.7 4.2-21.5 2.4-46 1.7-63.3-13.7 1.3-.8 3-1.6 2.7-3 4.6-.2 7.6-6.1 9.7-10.3 3.6-7.4 1.7-13-6.3-16-4.8-1.8-9.6-2.3-10.6-8.3a22 22 0 0 1 1.7-9.8c1.2-2.6 4.5-6 6.9-8.5l2.9-2.7c1.9-1.6 4.7-3.4 6.7-4 1.4-.5 5.7-1.5 7-.3 1 .9.1 2.4.4 3.6.5 2.8 2.4 4 4.2 6 1.5 1.5 1.4.3 2.3 1.8.8 1 0 3 1 3.8 0-1.5-.1-1.5.8-.4 0-1.8-1.6-3.6-1.6-5.7 0-2.7.8-4.6-.7-7.3a9.8 9.8 0 0 0-8.5-5.8c-7.8-.6-16 4.2-21 9.8-4.7 5-6 11.2-5.2 16.9.4 2.6.7 6 3 8.6 1.2 1.6 2.7 2.5 4.2 3.6s3.9 1.8.8 2.3c4.7 1.9 8.6 5.7 6.9 11-1.7 5-7.7 7.8-9 12-.6 2-13-11.2-15.5-11.9-9.3-2.5-8.4 13.8-3.7 17.9 2.9 2.4 9 2 11.6 1.1 3.8-1.1 4.6-2.6 8.4-1.2 5.2 2 9.8 5.6 15 7.7 20.7 8 43.1 6.5 64.5 3.4 10.5-1.6 21-4.3 31.6-5.5 3-.3 7-1.1 9.9 0 1.8.7 2.6 2.5 4.2 3.5 5.2 2.8 5-3.3.4-5-2-.6 1.1.5 0 0zM75.9 163c-.6-.3.2-.2 0 0 0-.1 0 0 0 0zm-1.3-7.3c0 1.7-.6-.1 0 0 0 .2-.3-.1 0 0zM74 157c.3.3 1.4 1.5.2 2-.3-.7-.4-1.3-.2-2 .4.4-.3.8 0 0zm-.2 3c1-.2.4.9.4 1.7.6 0 1.5-.7 1.7-.6.3.3-2.4 2.6-2-1 0 0 0 .4 0 0zm-.3-6.4c.1.8 0 1-.7.7l.7-.7c0 .4-.2.2 0 0zm12.8-29.3c.3 0 .3.4.4.6-.4-.2-.4-.2-.4-.6zm3.4.8c.2 0 0 1.2 0 0 0 0 0 .2 0 0zm-3-6.3c1.2 0 2.7 4 2.8 4.8.1 1-1.7 1.7-1.7.7 3.1-.6-1.3-6.3-2.2-4.1-.2-.8.1-1.3 1-1.4.3 0-.6 0 0 0zm-1 2.1c-.4-.6 0-.6 0 0-.2-.2 0-.2 0 0zm-.3-3.1c.7.4-.9.3 0 0zm-.5 2c-.6 1.4 1 2.8 1.3 4.2-.5 0-2.3-4-1.3-4.2-.4 1-.3 0 0 0zm-21 6.7c.5.3.5.6 0 1-.7-.5-.7-.8 0-1zm-.2-3.6h-.4c.1-.2.2-.2.4 0zm-.8 2.4c1 0-.2 1.4 0 0 .3 0 0 .2 0 0zm-2.1 2.4c.6 1 .8-.9 1.1 1-1.3 0-1.6-.2-1.1-1 .2.2-.1.2 0 0zm-1.1 1.3c1 1.2-.5.9-.8.8.1-.4.5-.7.8-.8.3.2-.5.2 0 0zm-.8 6c.5.3.6.6.5 1.2-.6-.3-.6-.5-.5-1.1zm-2.2.4c-.5-.6.3-.2 0 0-.1-.1 0 0 0 0zm1.6 7.8c.3 0 .3 0 .3.3 0-.2-.2-.2-.3-.3zM70.8 158c-.5 0 0-2 0 0-.1 0 0-.3 0 0zm0 11.1c0 .5-.2.6-1.2.7.4-.9.8-1.1 1.3-.7zm-15.3 6.1c1.3.3 1.7.6 1.3 1.2-1.3-.3-1.8-.7-1.3-1.2.5.3-.1.1 0 0zm-.6-.3c-.4.5-1.7-1.1-1.7-1.2l1.7 1.2s-.6-.4 0 0zm-2-1.5a5.2 5.2 0 0 1-3-3.4c1.2 1 2.2 2 3 3.4zm-8.6-6.2l1.3 1c-1.1.2-1.5-.1-1.3-1 .3 0-.2.2 0 0zm13.3 14.4l-.9-.9c-4.4 5.8-15 .4-14.9-6.9 0-2.5 1.7-4.3 5.4-2 1.6 1 11.8 8.5 10.4 9.8-.5 0 .3-.4 0 0zm.8-.6c-.6-.6.1 0 0 0zm-.8-3.7c.2-.2 3.5 2.5 3.5 2.5a6.8 6.8 0 0 1-3.5-2.5s1 1 0 0zm4 3c1 .1 2 1 2.1 1.8-.6-.7-1.3-1.2-2.1-1.8zm7.1 5.8v-.9c.8 0 .4 1.3 0 1-.3-.4.1 0 0 0zm61.8 8.4c.5-.7 1.2-.8 1.7-.2-.6.3-1 .3-1.7.2zm30-5c.5-.6 1.9-1 2.7-.6-.8.8-1.7 1-2.7.6 0-.1 1 .6 0 0zm22-2c0-.7 3 .4 3.1.4a342 342 0 0 1-3.1-.3s1 0 0 0zm3.7.5c1-.1 1.5.2 2 .8l-2-.8c.7 0 .7.3 0 0zm2 .9c1.1-.1 1.2 0 1.6 1.3-.6-.5-1.2-.8-1.5-1.3zM85.6 144.7c-4-2-6.2-11.9.4-10 5.1 1.4-1.9 7-1.6 2.3-.3 5 5.5 1.6 4.1-1.8-1.4-3.6-6.4-1.8-8 .8-2.5 3.9.3 8 3.4 10 5.1 3.1 10.8 2 15.8-.5 2.2-1 5.1-2.4 7.4-5 1.4-1.8 3.1-5.3 4-6.2 7.2-7.4 0 15.9-3.1 14.6 0-2.2-1.8-3-2.3-4.9-1.8.2-2.6 3.7-2.5 4.1.2 1.4.9 2.4 2.2 3.2 2 1.1 3.2.3 4.7-.6.5-.3.4-1.2.7-1.5.7-.9 1-.3 1.7-.9-.5-.5-.5-1 0-1.5 1.9 1-1.7 3.4-1.6 4.2 5 1.8 10.1-6.9 12.3-10.1 0 3.3.8 8 4 9.2 5 1.7 6.4-2.9 9.7-4.2 2.5 5.4 6 6.6 11 3.3.4-.3 10-10 6.3-10.7-2-.4-7 12.8-11 9 .6-2.6 1.7-4.9 3-7.1 1.8-3.3 7-8 7.1-11.6.1-3-.7-3.4-4-3.3-1.2 0-3.4 1.3-4 1.2-2.2-.2-3.9-2.2-6.9-2-4.8.6-9.5 4.6-12.6 8.2-1.1 1.3-5.8 12.9-8 11 .2-1 1.2-4.6-.5-5.7 0 .8-.4 1-1 .4.4-1-.6-4-.5-5.6.1-1 .6-4.4 1.2-6 .8-1.8 3.6-3.2 1-5.5-2.5-2-3 2-4.2 4-2.3 3.7-5.3 6.6-8.2 9.9-1 1.2-6 7.2-6.2 6.7-1.2 4.8-10.7 4-13.8 2.6zm-3.3-.8c-.7-1.5-1-2.6-1-4.2l1.8 4.6c-.5.3-.7 0-.8-.4zm21.6 3.8c-1.4 1.2.6-.5 0 0-.2.2 0 0 0 0zm10-3.8c-1-.2.9-1.3 0 0-.1 0 0-.2 0 0zm27.8-2.1c-.4-.5-.3-.8.4-1 0 .4-.2.7-.4 1-.2-.2.5-.2 0 0zm1.3-1c-.8-.7.5-.7 0 0 0-.1 0-.1 0 0zm2.3-3.8c-1.4-.6 1.4.6 0 0-.2 0 .3.1 0 0zm3-7.5c.2.4.3.8 0 1.2-.3-.8-1.5-.8-.8-2.1l.7.9zm-.9-1.3c-.3 0-.4-.2-.4-.4.3 0 .3 0 .4.4zm-.6 5.2c.8 0-.5 0 0 0 0 0-.1 0 0 0zM145 132c1 0 1.4.5 1 1.6-1-.2-1.3-.7-1-1.6.3.1-.2.3 0 0zm-.5 2.6c.6-.1.4 1 0 .7-.3-.3-.4-.5 0-.7zm-1-3.2c0-.7-.6 1.8 0 0 0 0-.2.2 0 0zm.1 3.5c.3.3.3.7.1 1-1-.5-1-1 0-1 .4.5-.3 0 0 0zm-.5 2.7c-.8-.3-.9-.9-.2-1.7l.2 1.7c-.4 0 0-.6 0 0zm-13.7.5c.4.1-.3 1.2 0 0 0 0-.1.1 0 0zm.3 3c3-3.6 3.5-8.2 7.7-11.4 2.4-1.9 4.8-2.2 5.1 1.6.2 2-2.2 5-3 6.4-1.6 2.7-3.4 6.1-5.5 8.4-5.6 5.7-8.5.3-4.3-5 .3-.3-.3.5 0 0zm-1.4-8.2c.4.2.4.2 0 .5v-.5zm-.8 5.7c1.6.5 1.3 1.7.4 2.7 0-.7-.6-2-.4-2.7.2.1 0 .3 0 0zm-2.4 3.6c.2.7 0 1-.5 1.2l.5-1.2zm-8.5.3c-.4.2-.4-.6 0 0zm-.9-2.7c1 0 .8.6.3 1.2l-.3-1.2c.2 0-.2.5 0 0zm-.2 3.6l-.3-.3c.3 0 .4 0 .3.3zm-8-8.2c0-.6.2-.8.4-.6l-.1 1.6c-.5-.2-.6-.6-.3-1zm-3.2 4.6c.7-.4-1.2.7 0 0 .1 0-.1 0 0 0zM91.8 179c-.2 1 3 4.9 4.5 5.4 2.2.6 5.4-.8 6.9-1.7 3.2-2 8-7 6.8-11.7-2.4-.6-7 13.4-11.6 9.4 1-2.6 1.7-5 3.1-7.6 1.7-3 8.3-10.1 7.7-13.5-.5-2.8-3.7-2.3-6.4-2.1-.7 0-2 1.1-2.3 1.1-.3 0-1-1.2-1.6-1.3-4-.8-6.3-1.3-10 .8-7.3 4-14.7 13.2-10 22.3a5.9 5.9 0 0 0 6 3.4c1.7-.2 6.6-2.9 6.9-4.5zm11-18.9c.3.5 1.5 1.8.8 2.3-.2-.7-1.7-1-.8-2.3.2.2 0 .1 0 0zm-.1-.3c-.3 0-.4-.2-.3-.5.3.1.4.2.3.5zm-.6 5.4c.3.5-.3.5 0 0 0 .2-.1.2 0 0zM79.2 176l.5-1.3c.3.5 0 1.3-.5 1.3zm18-2c-.2.4-.4.4-.5-.1.6-.8.8-.8.6.1zm1-.7c-1-.7.3.2 0 0-.2-.1 0 0 0 0zm2.3-4c-1.5-1 1.3.7 0 0-.3-.2.2 0 0 0zm-.2-5.5c.8.5 1.6.4 1.1 1.7-.4-.5-1.8-.7-1-1.7.1.1-.3.3 0 0zm-.5 2.7c.6.3.7.6.1.8-.5-.3-.5-.5 0-.8 0 .2-.2 0 0 0zm-1-3.4c.8-.3-1.4.5 0 0 .1-.1-.2 0 0 0zm.2 3.7l.2 1.2c-1.2-.5-1.3-1-.2-1.2.3.4-.3 0 0 0zm-.7 1.2v1.7c-.8-.4-.8-1 0-1.7.2.7-.4.2 0 0zm-14 2.1c0 .5-.4 1.4 0 0 0 .3-.2.3 0 0zm-1-5.2c.5 1.3-.5-1.4 0 0 .1.2 0 0 0 0zm-1 6c1 .5 1.6 2 .4 2.7-.3-1-.4-1.8-.4-2.8.2.1-.1.5 0 0zm8.3 5.3c-2.6 3.8-10.6 9.2-7.4 0a49 49 0 0 1 5.7-10.5c1.1-1.7 4-7 6.7-6.2 2.7.7 2 3.5 1.5 5.4-.8 3.3-4.3 8.3-6.5 11.3-.6 1 .2-.2 0 0zm23.6 4.5c-.2 3.4 5.6 1.7 6.8 1 2-1.2 4.6-3.4 5.3-5.6 1.5.2 2 4.7 3.7 6 1.1.8 3 1.7 4.4 1.5 3.5-.4 8.6-7.7 8.6-11.3-1.4-.4-10 15.5-11.6 7.5-.4-2 2.8-6.5 3.6-8.2 1.3-3 2.5-6 3.9-8.6.5-1 5-6.2 2.5-6.5 0 0-5.6 12.2-6 12.2 0-3.3 2.1-5.8 2.1-8.8-1.8.1-1.7-.3-.9-2.2 1-2 1.3.3 2.2.2.2-1.2.5-1 1.5-1.5-4.6-4.4-13 15-15.3 18-1 1.2-6.6 8.8-8.9 5.6-1.7-2.4 5.2-12.6 6.4-15.2 1.8-3.3 7.8-11 0-9.7-4 .8-3.7 3.5-6.2 6.5-2.3 3-4.6 5-4.7 8.7 0 .6 1-.4 1 .4.2 1.3-.7 2.9-.3 4.1 0 .3 3 1.5 2 3.4-.3-.1-.7 0-1 .3 0-.4-.1-.7-.5-1-.4 1.5 1.5 1.9 1.4 3.2zm19.7-11c.5.3.5.5 0 1v-1zm-2.4 4.6c-.2-1.3.1-1.7 1-1.3.3.5-1.2 2.5-1 1.3.1-.5 0 .2 0 0zm-9.4-14c.9.6.9.9-.2.9l.2-1c.2.2 0 .4 0 0zm-4.1 4.4c.3-.3.5 0 .6.7l-.6-.7s0 .2 0 0zm-.1-1c.2-.4.5-.6.9-.6-.3 1.6-1.1 1-1 .6zm32.7 15.4c1.6 3.2 4 4.9 7.6 3.4 2.4-1 3.5-3.7 5.4-4.6 2-1 2.9.3 5-.3.8-.3 2.2-1.9 2.9-2.6.5-.5 5-5.5 2.7-5.9.3.1-7.1 7-7 6.7-2-2.2 3.1-10.9 3.6-13.8 1-10-4.8-6.2-7-.5-1.1 3-.9 6.3-.6 9.3.2 2.8.8 4-.6 6.3-.5.8-4.4 4.1-5.7 3.8-3.9-1 2.5-12.8 3-16.4.6-6-2-10.8-7.6-6.9-3 2-3.8 5.2-5.8 8.2-1 1.7-5.1 9.6-.6 5 1.6-1.8 5-13.6 9.5-11.5.6 2.7-3.2 8.7-4 11.5-.7 2-2 6.2-.8 8.3.2.4-.2-.4 0 0zm14.7-13.5c.5-1.5 2.3-4.1 2.2-5.5 3-.6 1.2 4.5 1 5.6-1.2 3.6-5 5.4-3.2 0 0-.4-.4.8 0 0zm-9.2 1.6c.6-.1.7.2 0 1.1v-1.1zm-3 5.9c0-.2.8-3 1-3 2 1 0 3.5.4 5.3-1.7.6-2-1.2-1.5-2.3.1-.5-.3.6 0 0zm-.3 6.4l.6 1-.5.5c-.5-.6-.7-1.2-.8-2l.7.5zm19.5-58.5c.6-1 .2.2 0 0 0 0 0 .1 0 0zm44.4 68.2c.3.9.1 1.3-.6 1.1-.3-.6 0-1 .6-1.1 0 .4-.7.2 0 0zm-2.7 2.1c-.2 1-.5-.7-.5-.6.3 0 .5.1.5.6zM84.3 137zm172.4 45.8c-1.3 1.9-1 3.2 1.1 3.6-2.6 0 2.2-8.2 4.2-1.6 1.6 5.6-6.1 7.5-10 7.5-5.7 0-10-1.8-15.4-3-4.2-1-8.2-3-13.4-3.6.4-1.4 3.5-5 4.4-6.6 2-3.4 2.8-5.3 6.3-6 5.4-1.1 3.8 2.8 5.8 5.5 1.9 2.6 6.7 3 10 1.7.8-.3 6.5-3.7 6.6-5.3-3 .2-3.6 1.8-6.4 3-5.4 2.4-9.7-3-4.8-7 3-2.3 8.7-2 11.6-5.3 2.2-2.4 3.3-6.4 1.4-9-5.3-7.2-13 .5-16.6 4.8-1.3 1.5-2.8 2-3.4 4.2-.2 1 .5 2.3.3 2.9-1 2.7-3.4 2.7-6.2 2.7 1.5-3.2 8-11.8 6.2-15-1-2-6-1.9-7.6-1.9-3 0-6.2-.9-9.2-.6-5.2.5-9.6 5-12.8 8.6-4.3 4.8-3.3 10-8.6 14.5-2.3 2-4.4 2.8-4.2-.9.1-2 2-4.4 3-6.2 1.8-3 4-5.9 5.8-8.8 3-5.4.5-6.3-4.9-6-1.2 0-1.7.9-2.5.8-.9-.1-2.2-1.5-3.2-1.7a11 11 0 0 0-7.4 1c-3.6 1.7-8.4 6-10.3 9.5-6.3 11.2 4.5 23.2 12.7 12 4 10.3 12.1 4 16.6-1.8 1.6 3.6 2 6.8 6.5 7.5 2 .2 4.8-.2 5.5-2.9a5 5 0 0 0-2 .8c.1-.5-1.8-1.6-2.5-2.8-1.4-2.2-.7-5.5.3-7.8 1.5-3.5 6.7-10.3 11.2-10 5.3.1 3 6.8 1.4 9.6-.2.3-1.8 1-2.2 1.5-.7.9-4.7 6.7-4.5 7 2-.2 1.3 1.4 1.7 3.1.3 1.5 1.4 2 .4 3.6-.6 1-1.1-.5-1.4-.4-2 .8-3.2.6-5.2 1-5.4 1.1-10.3 6.1-13.7 9.9.1 1 1 1 .6 2-.3.6-1.7 1.4-1.6 2.3 1-.6.2 2.8.3 4 .1 1.5.4 3.3 1.4 4.5 2.9 3.5 6 2 8.7-.6 1.6-1.6 2.9-3.8 4.3-5.7.8-1.1 4-5.6 4-4.6.5-.3 1-4 1.2-4.4.7-3 .9-4 3.9-4.2 3.5-.3 8 2.5 11.4 3.6 4 1.3 8 2.3 12.2 2.5 5.3.3 17.2-.6 18.3-7.8.4-4.9-6.7-7.6-9.3-3.7zm-9.5-18.6c1.1-2.3 3.4-8 6.3-8.6 3.6-.8 5 2.7 3.4 5.8-1 1.5-7.4 7.5-9.5 6.5-2-.8-.4-3.8-.2-3.7.1-.2 0 0 0 0zm-.6-5.7c1.1-.5-1.1.5 0 0 0 0-.1 0 0 0zm0 1.6c0 1.5-1 0 0 0 0 .2-.5 0 0 0zm-2.7 1.3c.1-.2-.4.6 0 0 0 0-.2.2 0 0zm-4 5.8c.5-.4 1.4-2.4 2-2.3 0 1 .6 1.2 1.4 1 0 .4-1.5 3.5-1.4 4.4-.1-.4-.2-.8-.5-1-1.3 1.4-.3-1.3-1 1-.2-.2-1.4-2.6-.5-3.1zm-.3 5c.2-.1.2-1.6.6-1.7.9 3.3.9 2.3 0 5.3-1.2-1-1.4-2.5-.6-3.5zm-8.2-10.5c.2-.3.3-.2.4 0h-.4zm.6-3.6c.2 1.3-.3 0 0 0 0 .1 0 0 0 0zm-.2 1.5c.1.5-.1.9-.4 1.2-.5-1-.4-1.4.4-1.2 0 .6-.2 0 0 0zm-31.4-1c.5.4.6 1 .3 1.5 0 0-1.4-3.5-.3-1.6zm-1-1.5c.3 0 .4.3.3.5-.2 0-.3-.2-.3-.5zm-.3 6c.7.3-.2 0 0 0 0 .1 0 0 0 0zm-22.8 10.7l.5-1.3c0 .3.2 1.4-.5 1.3.2-.4.5.1 0 0zm21.3-6.8c-1.5-1 1.2.9 0 0-.2-.1.2.2 0 0zm-.2-5.4c1 0 1.5.6 1 1.7-.3-.4-1.8-.8-1-1.7.4.2-.2.3 0 0zm-.6 2.6c.6.3.7.6.3.7-.7 0-.7-.4-.3-.7.3 0 0 .1 0 0zm-1-3.3c.7-.3-1.4.7 0 0 .1-.1-.2 0 0 0zm-.4 4c.8-.5 1.1-.2.8 1-.8-.3-1-.6-.8-1 .2-.2 0 0 0 0zm-14 3.2l-.1.5c-.3-.2-.1-.4 0-.5zm-1-5.4c.4 1.2-.6-1.3 0 0 0 .2 0-.1 0 0zm-1 5.9c1 .6 1.4 2 .2 2.9 0-.8-.6-2.3-.3-2.9.3.1-.2.3 0 0zm14.5 3.5c-.4-.5-.2-.8.4-1 .1.7 0 .8-.4 1zm.5-10.2c-1.2 1.1-2.9 5.7-3.9 7.2l-2.3 4.3c-2.4 3.9-11.3 10.7-8 .7 1-2.8 3.2-6.4 4.7-8.9 1.2-1.9 3.6-6.4 5.6-7.4 2.6-1.1 6.6 1.6 3.9 4-.2.3.3-.2 0 0zm.8 9.1c-.7-.8.4-.5 0 0zm.2-3.4c-.8-.4-.9-1 0-1.9v1.9c-.4 0 .2-.6 0 0zm11.2 6.2c0-.6 1.5-.1 0 0 0-.1.2-.1 0 0zm1.2-1.2c-.8-.7.2-.5 0 0-.3-.1 0-.2 0 0zm3.7.4c-.5-.5.1-1.2 0 0-.2-.2 0-.3 0 0zm2-6.7l-.4-1.9c1-.3 1 1.3.5 1.9-.2-.7.4-.6 0 0zm4.4-6.9c-.3 0 .1-.7 0 0zm3-3.4c.6-.8 1-.8 1.2.2l-1.2-.2c.3-.2.5.4 0 0zm8.2 7.2c.4-.2-.6.3 0 0zm-.2 6c0 .6-.4-1.3 0 0 0 .1-.2-.3 0 0zm-1.2-3.9c1 1-.2.9 0 0 .2.3 0 .3 0 0zm-2 5.2c.7-.3-.6 1.3 0 0 0 0-.1.1 0 0zm-8.4 19.3c-.4 3.3-2.6 6.1-4 9-1.3 2.3-1.9 4.7-4.3 6.2-8.2 5-1.9-8.4-3.3-10.3h.7c.1.6.4 1.1.8 1.5.5-.3 11-14.3 10.1-6.4-.2 1.7 0-.6 0 0zm44.2.5c0-.8.3-1.1 1-1.1l-1 1.1c-.1-.4.5-.3 0 0zM243 134c-.8-3.1-6.6-6.8-7.7-3.5-.7 0-1.1-.1-1.1-.5-5.6 3.4 1 9.7 2.4 5.9-1.5 2.2-4.6-3-.2-4 3.6-.7 4 4.5 3.5 6.7-1.5 6.2-8.7 8.8-14.3 8.7-6-.1-4.2-2.1-2.4-5.7 1.4-2.7 3.3-6.2 4-9.6 1.8-8.5-4.4-10-9.7-4.6-6.4 6.7-1 .6-6.5-2.4-7.6-4.3-14 17.5-18.6 14.6.2-4.6 6.6-12.3-1.6-15.3-6.6-2.5-12.3 5-15.6 9.3-2 2.7-8.8 16.9-13.3 15.6-3.8-1 8.9-22.9 9-25.7a24 24 0 0 1 .6-1.6l1.6-3.1c1.3-2.5 7-10.7 4.8-12.6-5.2-4.6-13.2 15.2-15.7 19-2 2.7-4 6-5.5 9.2-2 3.7-1.5 7.8-.4 12 1.1 4.4 4.3 5.5 8.5 3.3 4.8-2.3 5.9-6.2 8-9.8.7 6.7 3.9 13.6 11.8 9.2 5.5-3 10.7-6.5 14-11.3 1.2-1.5 11.9-15.9 9.5-6.8-1 4-9.8 15.5-7.4 19 .4-1.8 1.7-4.5 3-4 0-.6.4-2.7 1.6-2.7-.1 2.3-1.8 4.1-2 6 3.3-.5 6.5-6.6 8-8.7 1.8-2.8 3.6-6 5.8-8.4.7-.8 5.2-5.4 6-5-1.6 5.7-8.2 12-5.7 18.4 3.7 9.7 28.8-.4 25.6-11.6-.8-2.9.7 2.5 0 0zm-18-.4c.6.7-.4.7 0 0 .2.1 0 .1 0 0zm-51.9-21.8l-.3.3c-.1-.3 0-.4.3-.3zm-1.5 2.9c.3-.8-.5-2.5.5-2.9-.1.8 0 1.3.8 1.5 0 0-1.5 3.4-1.1 3.3l-.2-2c0-.2-.3.8 0 0zm-2 3.5c1-.9-1.4.9 0 0 .1-.2-.3 0 0 0zm0 7.4l-.7 1.1c-.2-.7 0-1 .7-1.1-.2.3-.6 0 0 0zm-1.2 2l-.3.4c-.1-.3-.1-.4.3-.5zm-5.7-2.1c.2.2-.5.8 0 0 0 .1-.1.1 0 0zm-.6 1.1c-.2.6-.4 1.1-1 1.6.2-.4.5-1 1-1.6zm-1.2 2c0 .5 0 .5-.4.6.2-.1.3-.3.4-.6zm15.6 11.2c.5 0 .6.3.3.7-.3 0-.4-.2-.3-.7.2 0 0 .3 0 0zm.9 2.8c-.3 0-.5-.3-.8-.4.8-.7 1-.6.8.4-.4.1 0-.3 0 0zm3.6-12s1.2 1-.5 1c0-.4.1-.7.5-1 0 0 0 .4 0 0zm-2.6 5.4c-.4-.2-.5-1.8-.3-2.3l1 .7c-.5 0 0 2-.7 1.6zm.4 2.4c-.8-.8.4.4 0 0-.1 0 0 0 0 0zm12.8-5.9c.3 3.4-1.9 7-3.6 9.8-.8 1.3-1.3 2.3-2.6 3.3-.6.5-5.4 2-5.3 2-2-4.3 2.6-12.8 4.5-16.5 2.8-5.2 6.5-6 7 1.4 0 .4 0-.6 0 0zm18.3 4.8l-.3-.9c.4.1 1.1 1 .3 1-.1-.4 0 0 0 0zm.6-.9c-.6-.2.1-.8 0 0-.2 0 0-.1 0 0zm1.5-2.3c.1 0-.9-1.6.1-1.2.3.4.3.8 0 1.2-.2-.2.1-.4 0 0zm11-.9c-.2.2-.2.4-.3.7-.3-.5-.3-.5.2-.7zm18.6 1.8c-.2 1-1.3-2.8-1.8-3.4.3-.8 1.9 2.8 1.8 3.4 0 0 .2-1.3 0 0zm-57.8 60.4c0 .6-4-4-.8-4-.4 0-.5-.4-.4-.9 0 0 9.4 3 7.7-.6 1.9 4.2.6 1.6-1.7 3.2-1.6 1-3 1.6-4.8 2.3.1-1 .4-.2 0 0zM78 193.2c-1.3-.2-4.2.3-5-.1-1.4-.7-1.5-2.3-2.6-3.3.6-.1 7.7 2.6 7.6 3.4-.3-.1 0-.1 0 0zm159.6-38.4c-1.8-1-1-3 1-2.3 1.6.4 1 3-1 2.3 0 0 .7.4 0 0zM99.1 128.2c.8.8 2 1.5 2.1 2.6-1.6.2-2.4-1.1-3-2.5h.9c.7.7-.4 0 0 0zm77.9-8.4c1-.7 6.7 0 7.6 1-.8 0-7.6-.6-7.6-1 .7-.5 0 0 0 0zm-86.5 32.4c-.4.1-6 1.3-6 0-.3-1 6-.2 6 0-.2 0 0 0 0 0zm37-23.1c-1.5 0-5-1.7-5.9-3 2 1 4.2 1.5 6 3-1.3 0-.4-.3 0 0zm11 72c-1.3.6-5.3.7-6.6-.2 2.3.2 4.5-.3 6.6.2-1 .5-.4 0 0 0zm-78-57c.3.2 2.8 2 2.3 2.8-.5.7-2.4-2.2-2.3-2.8 1 .7 0 .2 0 0zm63.4-27.2c.7.2.9.7.9 1.4-.6.7-2.5-.8-2.2-1.5a1 1 0 0 1 1.3.1c.2.1-.3 0 0 0zM110 189.4c-1.5.4-1.4-1.7-.8-1.6.6.3 1 .8.8 1.6-.2 0 .1-.6 0 0zM52 153l-.7-1.1c-.2-.4 1.8-.4 1.6.4l-.9.7c-.3-.3.4.1 0 0zm137.5-31.4c-.6-.2-.8-.6-.8-1.2.5-.7 2 .4.8 1.2-.6-.2.1 0 0 0zm-18 7.4c.8 0 1.3.6 1.4 1.3-.7 0-1.6-.4-1.4-1.3.5.2-.1.6 0 0zm9.2-17.2c-.9-.3-.7-1 0-1.3.7.5.8 1 0 1.3-.5-.2.1 0 0 0zM95 139c.5-.3 1 0 1.9.9-.8.3-1.6-.1-1.9-.9zm17.9 49c.6.7.5 1-.4 1-.9-.5-.7-.8.4-1 0 .4-.4.3 0 0zm9.6 16c.7.6.6.9-.4.9-.7-.6-.6-1 .4-1 .2.3-.3.2 0 0zm33.4-.5l1 .9c-1 .3-2 0-2.8-1h1.8c.5.5-.7 0 0 0zm-2-7c1 0 1.5.3 1.7 1-.4 0-.4 0-1.7-1zm32.6-73.1c-.7.5-1 .3-1.2-.5.5-.4 1-.2 1.2.5-.5 0-.3-.4 0 0zM119.4 192c-.1-.5 0-.7.8-.7.2 0-.4.7-.8.7 0-.2 0 0 0 0zm80.4-68c.6.6.5.9-.2.9-.6-.5-.6-.7.2-.8.1.3-.3 0 0 0zm16-1c-.4-.6-.3-.9.3-1 .4.4.3.8-.3 1-.1-.4.3-.2 0 0zm-28.6-4.3c-.4-.5-.3-.8.2-1 .5.4.4.8-.2 1-.1-.3.3-.2 0 0zM122.3 129c-.3.5-.6.7-1 .4 0-.3.7-.8 1-.4-.3.2 0-.1 0 0zm61.5-12.4c-.5.4-.7.2-.7-.4.4-.4.6-.3.7.4-.3.1-.2-.3 0 0zm2.1 77.5l.6 1.1c-.7-.2-.8-.5-.6-1.1zm-68.5-6.3c-.4.2-.7 0-.9-.3.2 0 1.2-.2 1 .3-.3 0 0 0 0 0zm-44 17.9c-.5.2-.8.1-1-.3.2-.1 1-.3 1 .3-.3 0 0-.1 0 0zm115.8-89.3c-.7 0-.8-.2-.4-.6.5.1.6.3.4.6-.2 0 0 0 0 0zm7 93.8c-.4-.5-.3-.8.2-1 .5.5.4.8-.2 1 0-.3.3-.2 0 0zm2-2.2c-.6 0-.7-.2-.3-.6.5 0 .6.3.4.6-.2 0 0 0 0 0zm-44.7-8.6c.5-.4.8-.4.8 0-.5.5-.8.5-.8 0 .2 0 0 0 0 0zm-48.3-74.7c-.4.3-.6 0-.6-.3.3-.3.5-.2.6.3-.2 0 0-.2 0 0zm95.8 62.5c1.1.3-4.7.6-2.5-.9 1.8-1.2 1.5-.4 2.5.9 0 0-.2-.3 0 0zm-27 6c2.3 1.2-.8 2.2-.7 1.7.2-.6-1.1-1.7.7-1.7.4.2-.2 0 0 0zm71.6-46.3c3.8.1-2.9 4.4 0 0 .6.1 0 0 0 0zm-7.4 35.8c-2.1-1 1-1.8.8-1.4 0 0 1.3 2-.8 1.4-.4-.2 0 0 0 0zm-93.6 3.4c-1.3 1.8-2.4-.7-.4-1 .5.1.7.5.4 1-.1.1 0-.2 0 0zm35.7 10.2c0-.6 1-1.3 1.6-.6.7.1-1.8.7-1.6.6zm54.3-12.1c-1.3 1.4-1.8-.8-.4-.7l.4.7c-.1.1.2-.4 0 0zm-89.3 26c-1.2 1.5-1.8-.7-.4-.6 0 .3.3.5.4.7-.1 0 .2-.4 0 0zm-2.8-22.7c.4.2.5.5.3.8-.7.3-1 .2-1.2-.4.2-.5.5-.6 1-.4.1 0-.2-.1 0 0zm36.5 8.7c.4.3.4.6 0 1-1 0-1-1.4 0-1 .1.1-.3 0 0 0zm3.2-3c-.3.4-.6.5-1 .4-1-.6 1.6-1.5 1-.3zM90.5 184c.7.6.4 1-.4 1-.5-.7-.4-1 .4-1zm155-36.9c-.6-.1-.3-1.3 0-1.1 1 .5 0 .6 0 1.1zm-69.9 7.5c1.2.5 0 1-.4 1-.3-.8-.2-1 .4-1zM57.4 200.3c1.1.5 0 1-.4 1-.4-.7-.2-1 .4-1zm85.6-15.2c-.5.5-.7.4-.8-.2.6-.6.8-.5.8.2zm-47.9 4.3c.4.4.3.7-.4.6-.3-.4-.2-.6.4-.6zm148.4-44.2c.3-.7.7-1 1.1-.5-.3.4-.6.5-1 .5 0-.5.2-.1 0 0zM180 196.7c.2.4-.8.8 0 0 .1.1 0 0 0 0zm1.2 1c-.6.9-1-1 0 0-.2.3-.3 0 0 0zm62.2-47.2c-.5 1.2-.7-1.2 0 0 0 0-.2-.2 0 0zM94.5 134.9c.1 1.2-1.2-.7 0 0 0 0-.2-.2 0 0zm153.7 14.4c-.3.9-.8-.2 0 0 0 .2 0 0 0 0zm-16.6 39.9c1.2-.1-.3.7 0 0 .2 0 0 0 0 0zm-92.6-5.6c0 .6-.9.3 0 0 0 0-.2 0 0 0zm-51.6 3c.2-.4.3-.4.5 0h-.5zM247 145.2c.5.2-.2.6 0 0 .1 0-.1 0 0 0zM191.5 202c4 .1-2.8 4.4 0 0 .7 0 0 0 0 0zm0 0c-.7 0-.4-1.3 0-1 1 .4 0 .5 0 1zm-2-1.8c.2-.7.6-1 1-.5-.2.3-.6.5-1 .5.1-.5.3-.1 0 0zm4.7 4.2c-.3.8-.8-.3 0 0 0 .2-.2-.1 0 0zm-1.1-4.2c.5.2-.3.7 0 0 0 .1-.1.2 0 0zm55.4-61.3c-.8 0 .3-.4 0 0zM59.7 195.5c.3-.7.7-1 1-.5-.1.4-.5.5-1 .5.2-.5.3-.1 0 0zm3.5.1c.6.2-.2.7 0 0 .1 0 0 .1 0 0zm1.5-6.2c-.9-.1.4-.3 0 0-.2 0 0 0 0 0zM296.5 144c.2-3.1-4.2-7.2-3.3-9.4 1.4 1.3 2.1 3.7 3 5.5a21 21 0 0 0-4.6-11.5c2-.2 2.8 2.2 3.7 4-.2-2.3-.3-4-1.2-6.2-.5-1.2-3.9-5-3.8-6.1.2-1 4.2 5.6 4.4 6.1-.2-2.3-.3-4.7-1.2-6.8-.5-1.2-4.4-4.7-4.3-5.6.2-1.4 4.4 4.3 4.6 4.6-.4-2.7-1-4.2-2.6-6.5-.8-1-4-4-3.7-5.3 0-.2 5 6 5.4 6.7-.4-2-.4-4.7-1.8-6.3-.7-1-3.5-1.8-3.5-2.8-.1-1.6 4 2 3.8 1.7-.5-2.2-1.2-3-2.8-4.4-.7-.8-2.8-.5-2.9-1.6.2-.9.8-.9 1.9 0-.6-.6-2.9-3-2.7-4 0 .7 4.7 5.2 5.6 6.3-.6-1.9-.9-4.1-2.1-5.7-.7-1-5-2.8-5-3.4-.1-2 4.8 1.8 4.9 2.1-.8-2-1.5-3.2-3-4.8-.3-.2-4-2.6-3.1-2.5 1.5.3 2.8 1.1 3.8 2.2-.6-1.2-1.2-2.4-2-3.6-.1-1.8-.8-2.2-2-1.4-.6-.2-4.1 1.4-3.8-1-.1.6 3.9 0 4.5-.3-.2-1.6-1-2.3-2.3-2.2-.6.2-1 0-1.3-.5-.1-.8.3-1.2 1.3-.8-1.8-2.9-3.4-1.8-6.5-3 0 0-4.2-2-3-2.1 2.7-.4 4.4 2.6 7.5 1.9-1.5-2-2-1.2-3.7-2.3-.7-.5-2.5-.6-2.4-1.9l3.6 1c-.8-1-5.3-2.6-5.4-2.8 0-.5 2.5-.4 2.8-.4-1-1-2.3-3-3.4-3.5-.8-.3-3.1.2-3.2-.2-.2-1 .3-1.3 1.4-1.3-1.3-1-5 .4-5.2 0-.1-.6 2.3-1.6 2.6-1.7a8.6 8.6 0 0 0-2.7-1.4c1 0 2 .2 3 .7-1-1.9-1.8-3.4-4.2-3.7l.8-1.2c1.2 1 2.5 1.7 3.9 2.3-.7-1.8-2.4-3-4-4.2-1.1-.8-5.8-2-6.4-3-.4-.9 6.6 2.3 7 2.6-1.8-2.1-3.3-4.2-5.7-5.5-1-.5-5.3-1-5.7-1.8-.6-1.3 6 1.3 6.3 1.4-1.8-2-3.2-3-5.7-4-1.3-.6-5.5-1.1-6-2.5l8.1 2.5c-1.3-1.3-2.8-3.7-4.7-4.3-1.3-.5-4 .6-4.7-.3-1-1.3 4.6-.5 4.1-.6A8 8 0 0 0 244 39c-1-.2-2.5 1.1-3.2.3-.3-1 .2-1.2 1.5-1-.8-.2-4-1-4.4-2 .2.6 6.7 1.9 8 2.4-1.6-1.5-3.2-3.3-5.3-3.9-1-.3-5.1.4-5.4 0-1.4-1.5 4.9-1 5.2-.8a9.2 9.2 0 0 0-5-2.4s-5-.2-4.1-.6c1.4-.5 3-.5 4.5 0-1.2-.8-3.8-3-5.2-3.1-.4 0-3.3 4.9-4.6 2 .3.7 3.3-1.8 3.7-2.5-1-1.4-2-1.7-3-.8-.5.5-1 .6-1.4.4-.6-.7-.3-1.2.7-1.5-3-1.3-4 .4-7.1 1 0 0-4.6.6-3.7-.3 2.1-1.7 5.2 0 7.3-2.2-2.3-1-2.3 0-4.4-.1-.8 0-2.4 1-3-.3l3.6-1.1c-1.3-.4-6 .5-6 .4-.4-.4 1.9-1.7 2-1.8-1.2-.4-4-1.3-5.2-1.2-1 0-1.4 2.3-2.4 1.7-2.5-2 6.8-1.6 7.4-1.5 2.4.4 5 1.5 7.3 2.6-1.5-1.2-5.3-2.2-6.3-3.7l-.1 1c-1.3-.9-2.4-.7-4-.7l1.3.4-7.3-.4c0-1.3 5.6-.6 6.3-.5-5-1.5-7.2-1.8-12.3-1 .6-1.8 3.3-1.3 5.3-1.4-2.6-1-4.6-1.7-7.3-1.6-1.4 0-5 1.4-6 .7-.8-.6 7-1.3 7.5-1.3-2.2-.8-4.4-1.7-6.6-1.8-1.4-.1-6.2 2-7 1.4-1.2-.7 6-2 6.2-2-2.5-.8-4.1-1-6.9-.6-1.3.2-5.4 1.8-6.4.9-.2-.1 7.5-1.9 8.4-1.9-2-.5-4.4-1.7-6.5-1.2-1 .3-3.1 2.5-4 2-1.4-.6 3-2.5 3.2-2.6-2-.5-3.3-.4-5.3.5-.9.4-1.6 2.4-2.6 2-.7-.7-.4-1.2.8-1.8-.8.2-3.9 1.2-4.8.5.6.5 6.5-1.7 8.1-2-2-.5-4.4-1.1-6.6-.6-1 .2-4.2 3-4.7 2.7-1.8-.6 3.8-3.2 4.1-3.2a8.9 8.9 0 0 0-5.4.4s-4.5 2.3-4 1.5c.7-1.2 2.7-1.8 3.9-2.2-1.4 0-4.8-.7-6 0-.3.2-.4 5.9-3 4 .6.4 2-3.2 2-4-1.6-.5-2.6-.3-3 .9-.2.6-.6.9-1.1.9-.8-.3-.8-.8 0-1.6-3.3.3-3.3 2.2-5.7 4.2 0 0-3.7 2.8-3.3 1.7 1-2.6 4.5-2.6 5.3-5.6-2.4.3-2 1.1-3.7 2-.8.4-1.8 2-2.9 1.3.3.2 2.2-2.2 2.5-2.8-1.2.2-4.8 3.3-5 3.3-.5-.2 1-2.3 1-2.5-1.5.3-3.9.7-5.1 1.5-1 .5-.2 2.7-1.2 2.6-.9-.3-1-1-.5-2-1.5.7-2 4.6-2.5 4.5-.6 0-.3-2.8-.2-3.1-.7.4-1.8 1-2.5 1.7.6-1 1.3-1.6 2-2.2-.3 0-2.4.8-1.9 0-1.8 0-4.8.7-5.9 2.2-.4-2 2-3 3.8-4-2.7.5-5 1-7.3 2.5-1 .6-3.6 3.5-4.5 3.4-1 0 5.3-4.6 5.7-4.9-2.8.6-5.2.9-7.5 2.4-1 .6-3.5 4.2-4.4 4-1.5 0 4-4.6 4.2-4.8-2.6.6-4.1 1.2-6.3 3-1 .7-3.7 4.2-5 4-.3 0 5.5-5.4 6.2-5.8-2 .5-4.6.7-6.2 2.1-.8.8-1.5 3.7-2.4 3.8-1.6.2 1.8-4.3 1.5-4-2 .6-3.1 1.4-4.4 3.2-.5.8-.3 2.8-1.3 3-1-.2-1-.9 0-1.9-.7.6-2.8 3-4 2.9.8 0 4.7-4.8 6-6-2 .8-4.6 1.5-6.2 3.2-.7.7-1.8 4.4-2.4 4.5-3 .6.6-4.5.8-4.7-2 .8-3.2 1.4-4.5 3.2 0 0-2.5 4.2-2.5 3.3a7 7 0 0 1 2.1-4c-1.2.7-4.5 2-5.2 3.1-.2.4 2.7 5.2-.5 5 .8 0 0-3.8-.4-4.4-1.1.7-2 3.5-2.6 3.7-.8.2-1-.3-.8-1.3-2.6 1.9-1.6 3.5-2.7 6.6 0 0-1.8 4.3-2 3.2C69 34.9 71.8 33 71 30c-1.6 1.1-2.5 6.3-4 6.3.2 0 .8-3.3.8-3.6-1 .8-2.4 5.4-2.5 5.4-.5 0-.5-2.5-.5-2.8-1 1-3.1 2.7-3.7 4-.5.9 1.2 2.3.3 2.8-1 .2-1.3-.2-1.3-1.4-1 1.3.6 5 0 5.2-.4.2-1.7-2.2-1.8-2.5-.4.7-1 1.8-1.2 2.6 0-1 .2-2 .6-2.8-2 1-3.4 1.7-3.6 4.2l-1.2-.8c.1-.5 1.8-3.3 2-4-1.8.7-3 2.5-4 4.1-.6 1.1-1.7 6.1-2.8 6.6-.9.5 2.2-6.6 2.5-7-2.2 1.6-4 3.3-5.3 5.8-.5 1-.8 5.4-1.6 5.8-1.3.6 1-6 1.2-6.4-2 1.8-4.6 11.3-6.1 12-.2 0 2-7.5 2.3-8.2-1.4 1.4-3.6 3-4.2 5-.3 1.1.6 3.8-.2 4.5-1.3 1-.6-4.6-.7-4.2-1.5 1.7-1.7 2.6-2 4.9-.1 1 1.2 2.5.4 3.2-.8.3-1.2-.2-1.1-1.5-.3.8-.9 4-1.9 4.5.5-.2 1.7-6.8 2-8.2-1.4 1.8-3 3.3-3.6 5.5-.3 1 .6 5 .2 5.4-1.5 1.4-1-4.9-1-5.2-1.1 1.9-1.9 2.8-2 5 0 0 0 5.1-.6 4.2-.5-1.4-.6-3-.3-4.5-.7 1.3-2.8 4-2.8 5.3 0 .4 5 3 2.2 4.5.7-.3-2-3.2-2.6-3.6-1.3 1.2-1.5 2.2-.6 3.1.5.4.6.8.3 1.3-.7.6-1.2.3-1.5-.7-1.4 3 .6 4 1.3 7 0 0 .7 4.5 0 3.7-1.9-2-.4-5.2-2.7-7.2-.8 2.2.2 2.4.1 4.4 0 .8 1 2.3-.1 3 .3-.2-1-3-1.3-3.5-.3 1.2.8 5.9.8 5.9-.4.3-1.7-1.9-1.8-2-.4 1.3-1.2 3.8-1 5.3 0 1 2.3 1.4 1.7 2.3-1.8 2.6-1.9-6.7-1.9-7.3.3-2.5 1.4-5 2.2-7.4-1.1 1.5-2 5.4-3.4 6.5h1c-.8 1.4-.6 2.4-.5 4.2l.3-1.4c-.3 1.9.8 6.2-.3 7.3-.8-1.7-.5-4.3-.6-6.2-.6 2.3-1.5 4.7-1.4 7 0 .6 1.5 5.4 1 5.5-1.6.4-1.5-4.6-1.6-5.3-.7 2.6-1.4 4.7-1.1 7.5 0 1.3 1.6 4.9 1 5.9-.4.9-1.8-6.9-1.8-7.3-.6 2.3-1.4 4.5-1.4 6.8 0 1.4 2.4 5.9 2 6.8-.8 1.2-2.5-5.7-2.5-6-.6 2.6-.7 4.3-.1 7 .3 1.2 2.2 5.1 1.4 6.2 0 .2-2.4-7.3-2.5-8.1-.4 2-1.3 4.5-.7 6.5.3 1.1 2.6 3 2.3 3.9-.5 1.4-2.8-2.8-3-3a7.4 7.4 0 0 0 1 5.2c.5.8 2.4 1.4 2.1 2.5-.5.8-1.1.5-1.7-.8.3.9 1.5 3.8.9 4.7.4-.6-2.3-6.3-2.8-7.8-.3 2.1-.6 4.5 0 6.6.5 1.1 3.3 3.9 3.2 4.5-.5 2.1-3.6-3.3-3.7-3.8 0 2.2 0 3.5 1 5.3 0 0 2.8 4.2 2 3.8-1.3-.6-2.1-2.4-2.7-3.6.1 1.5-.2 5 .7 6 .2.3 5.9-.2 4.2 2.6.4-.6-3.4-1.5-4.1-1.4-.6 1.6-.1 2.5 1.2 2.8.6.1.9.4 1 1-.2.7-.7.8-1.5.1.7 3.2 2.6 3 4.9 5.2 0 0 3.1 3.4 2 3-2.7-.6-3.2-4-6.2-4.5.6 2.4 1.3 1.8 2.5 3.6.5.7 2.2 1.4 1.7 2.6 0-.3-2.5-2-3.1-2.2.4 1.2 4 4.4 3.9 4.5-.1.5-2.5-.7-2.7-.8.5 1.4 1.4 4 2.3 5 .6.9 2.6-.2 2.6 1 0 .9-.7 1-1.8.7.8 1.5 4.9 1.3 4.8 2-.1.5-2.8.6-3.2.6.5.6 1.2 1.8 2 2.3-.9-.4-1.7-1-2.4-1.8.2 2.2.2 3.9 2.5 5l-1.3.7c-.8-1.2-1.8-2.3-2.8-3.4-.1 1.5.7 2.8 1.4 4.2.8 1.5 5.6 5 5.6 6.3.1 1-5.3-4.6-5.6-5 .7 2.2 1.3 4.5 2.7 6.4.8 1.1 5.3 3.7 5.4 4.6 0 1.4-5.2-3.4-5.4-3.6.9 2.6 1.8 4 3.8 5.8 1 1 4.8 3 4.8 4.4 0 .2-6.1-4.8-6.6-5.3.8 2 1.4 4.5 3 5.8 1 .7 3.8 1 4.1 2 .4 1.5-4.5-1.3-4-1a6.4 6.4 0 0 0 3 3.5c.8.4 3.7.4 3.9 1.2 0 1-.6 1-1.9.4.7.5 3.4 2.3 3.4 3.4 0-.7-5.5-4-6.7-5 1 2 2 4 3.7 5.5.9.7 4.8 1.3 5 2 .7 1.9-4.8-1-5-1.2 1 1.7 1.8 2.9 3.7 3.9 0 0 4.7 1.8 3.7 2-1.5 0-3-.5-4.3-1.4 1.5 1.8 2.9 3.8 4.5 4.2.6 0 4.2-2.6 4.4.2-.1-.8-3.8.6-4.3 1.1.5 1.5 1.4 2.1 2.6 1.7.6-.3 1-.2 1.4.2.3.9-.1 1.2-1.3 1 2.4 2.4 3.8 1 7 1.7 0 0 4.6 1.1 3.4 1.4-2.5 1-4.7-1.7-7.6-.4 2 1.8 2.3.6 4.6 1.5.7.3 2.1.3 2.2 1.4 0-.1-3.4-.2-3.7-.1 1 1 5.7 1.3 5.8 1.6 0 .5-2.4.8-2.6 1 1.2.8 3 2.5 4.6 2.9 1 .3 2.1-1.7 2.8-.8.4.9 0 1.4-1.3 1.6 1.6.8 4.8-1.4 5.1-1 .3.6-1.9 2.2-2.2 2.3.8.3 2 .7 3 .7-1 .2-2 .2-3.1 0 .5.5 3.8 4 4.3 4-2.4.2-5.6-4.4-7.9-5.5 1.4 1.8 2.8 3.9 4.8 4.9.4.2 5.4 1.2 5.3 1.6-.3 1.3-5.6-1-6.2-1.2 4.2 2.7 6.5 3.8 11.6 4.3-1.1 1.6-3.6.5-5.5 0 2.1 1.6 4 2.8 6.6 3.5 1.3.3 5.2.1 6 1 .6.9-7-.6-7.5-.8 2.3 1.7 4.2 3.2 7 4 1 .2 5.3-.4 6 .2.9 1-6.3.3-6.6.2 2.3 1.4 3.8 2.2 6.5 2.5 1.4.2 5.8-.3 6.5.8 0 .2-7.8-.3-8.6-.5 1.3.8 3.4 2.6 4.9 3 1.2.1 4.7-1.5 5.4-.9 1.2 1-4.3 1.6-3.9 1.6 2 1.2 3 1.2 5.3 1 1 0 2.2-1.8 3-1 .6.7.2 1.2-1.1 1.4.8 0 4-.1 4.7.8-.6-.7-6.8 0-8.4-.2 1.8.9 4 2.3 6.2 2.3 1 0 4.8-1.7 5.3-1.3 1.6 1.2-4.6 2.1-4.9 2 2 .7 3.2 1.3 5.3 1 0 0 5-1 4.2-.4-1 1-3 1.2-4.3 1.3 1.3.4 4.5 2 5.8 1.6.4-.1 2-5.5 4-3-.5-.7-2.7 2.6-2.8 3.3 1.5.4 4-.8 4.3-.6.7.5.6 1-.4 1.5 3.3.6 3.7-1.3 6.7-2.6 0 0 4.2-1.7 3.5-.7-1.6 2.1-5 1.4-6.6 4 2.4.4 2.3-.7 4.3-1 .8-.3 2.1-1.5 3-.5-.2-.3-2.7 1.5-3.2 2 1.2 0 5.6-2 5.7-2 .4.3-1.6 2-1.7 2.2 1.5 0 4.1.4 5.6 0 1-.4.8-2.6 1.8-2.2.8.5.7 1.1-.1 2 1.6-.3 3.2-4 3.7-3.7.5.3-.6 2.8-.7 3.1.9-.2 2-.5 2.9-.9-.7.7-1.6 1.2-2.6 1.5 2 .7 3.7 1.4 5.7-.2 0 0 0 1.5.2 1.5-.6.4-3.5.9-4.3 1.2 1.8 1 4.2.5 6 0 1.4-.2 5.4-2.6 6.4-2.1 1 .4-6.4 3-6.8 3 2.8.3 5.2.7 8 0 1-.4 4.5-3 5.3-2.7 1.4.5-5.2 3.3-5.5 3.4 2.7.2 4.3 0 6.9-1.1 1.2-.5 4.7-3 6-2.4.2 0-7 3.5-7.7 3.7 2 .1 4.7.6 6.6-.3 1-.5 2.4-3 3.4-3 1.4.3-2.3 3.3-2.5 3.4 2.1 0 3.3-.4 5-1.7.8-.6 1.2-2.7 2.2-2.5.8.5.7 1-.4 1.9.7-.4 3.5-2.2 4.6-1.6-.7-.4-6 3.2-7.5 3.8 2.2 0 4.6 0 6.6-1 1-.5 3.3-3.8 4-3.8 2.2.2-2.8 4-3.3 4.2 2.1-.2 3.3-.4 5.2-1.7 0 0 3.7-3.4 3.4-2.5a6.8 6.8 0 0 1-3.1 3.2c1.3-.3 4.8-.4 5.9-1.4.3-.3-1-5.8 2-4.6-.8-.3-1.2 3.7-1 4.4 1.6.3 2.6-.3 2.8-1.6 0-.6.2-1 .8-1 .8 0 1 .5.4 1.4 3-1 2.6-2.6 4.3-5.3.3-.5 3.1-3.6 3-2.7-.3 2.7-3.6 3.6-3.7 6.7 2.3-.9 1.7-1.5 3.1-3 .6-.5 1.1-2.3 2.5-1.9-.2 0-1.8 3-1.9 3.4 1.1-.5 4-4.5 4.1-4.5.5.1-.3 2.5-.4 2.8 1.3-.8 3.7-1.8 4.7-2.8.7-.7-.5-2.6.6-2.7 3.2-.4-3.8 5.7-4.4 6-2.1 1.5-4.6 2.3-7 3.2 2-.2 5.4-2 7.1-1.7l-.6-.8c1.6-.3 2.1-1.1 3.5-2.4l-1.3.8c1.8-1 4.3-4.6 5.9-4.5-.9 1.8-3 3.1-4.4 4.5 2.1-1.2 4.5-1.9 6.2-3.5.4-.4 3.2-4.7 3.6-4.3 1.3 1-2.6 4.2-3.1 4.6 2.4-1.1 4.5-2 6.4-4 1-.9 2.8-4.4 3.9-4.6 1-.2-4 5.7-4.5 6 2.2-.9 4.4-1.7 6.1-3.2 1-1 3-5.6 4.1-5.8 1.3-.3-2.9 5.5-3 5.7 2.4-1.2 3.7-2.2 5.3-4.4.9-1.1 2.7-5.1 4-5.1.2 0-4.2 6.5-4.7 7.1 1.9-1 4.4-1.8 5.5-3.5.6-1 .6-4 1.6-4.3 1.5-.6-.8 4.6-.5 4.2 1.8-1.2 2.7-2 3.4-4.1.3-1-.4-2.9.6-3.3 1 0 1.2.5.6 1.9.6-.7 2-3.6 3.2-3.7-.8.1-3.5 5.8-4.5 7.1 1.8-1 4.1-2.3 5.2-4.1.6-1 1-5 1.5-5.2 1.9-.9-.5 5-.7 5.2a8.6 8.6 0 0 0 3.6-4.1s1.5-4.8 1.7-3.9c.1 1.5-.3 3-1 4.3 1.7-1.5 3.5-3.2 3.8-4.8 0-.6-2.8-3.9-.1-4.4-.8.1.9 3.7 1.4 4.2 1.5-.6 2-1.5 1.5-2.8-.3-.5-.3-1 .1-1.4.9-.4 1.2 0 1.2 1.1 2.1-2.5.7-3.8 1-7 0 0 .8-4.6 1.3-3.5 1 2.5-1.3 5 .2 7.8 1.2-1.4 1-6.7 2.4-7-.2 0 0 3.4 0 3.7.8-1 1.2-5.8 1.3-5.9.4-.2 1 2.4 1.1 2.6.7-1.3 2.3-3.4 2.7-4.8.2-1-1.8-2-1-2.7.8-.4 1.4 0 1.7 1 .6-1.5-1.9-4.8-1.5-5 .5-.3 2.3 1.9 2.5 2 .2-.7.6-2 .6-2.9.3 1 .3 2 .1 3 1.6-1.5 3-2.6 2.5-5l1.4.5c0 .6-.8 3.7-1 4.4 1.6-1 2.3-3.2 3-5 .3-1.2.2-6.2 1.1-7 .7-.6-.5 7-.7 7.5 1.3-1.8 2.9-3.8 3.5-6 .4-1.2-.3-6.3.4-7 1.1-.9.5 6.3.4 6.6 1.4-2.3 2-3.9 2.3-6.5.1-1.4-.5-5.7.8-6.5a86 86 0 0 1-.4 8.5c1.2-1.7 2.8-3.9 2.8-6 0-1-1.5-3.6-1-4.3 1.1-1.3 1.8 4.3 1.8 3.9 1.2-2.3-.9-7.7-.4-8.4.7-.5 1.2 0 1.4 1.2.1-.9-.3-4 .6-4.8-.4.4.1 7 .1 8.4 1-2 2.2-4 2.2-6.3 0-1-1.8-4.7-1.5-5.2 1-1.7 2.2 4.5 2.2 4.8.7-2 1.2-3.2.8-5.4 0 0-1.3-5-.6-4.2 1 1 1.2 3 1.4 4.3.3-1.3 1.8-4.5 1.5-6-.1-.3-5.7-1.7-3.3-3.7-.6.5 2.8 2.6 3.5 2.7.9-1.3.9-2.4-.2-3.1-.5-.3-.9-.6-.7-1.2.5-.7 1-.6 1.6.3.6-3.2-1.7-3.8-3-6.5 0 0-1.8-4.2-.9-3.6 2.2 1.5 1.6 4.9 4.4 6.3.2-2.4-.8-2.3-1.2-4.2-.2-.8-1.7-2-.7-3-.3.2 1.7 2.6 2.2 3 0-1.2-2.4-5.5-2.2-5.5.3-.4 2 1.3 2.2 1.6 0-1.6.1-4.1-.4-5.5-.4-1-2.6-.7-2.3-1.7.5-.8 1.2-.8 2 0-.3-1.6-4.1-2.8-3.9-3.3.2-.6 2.9.3 3.2.4-.3-.9-.7-2-1.3-2.8.9.7 1.4 1.5 1.8 2.5.2-.9 1-5.6.7-6 1.5 1.8-.1 7.3.4 9.6.2-.8.5-4.8 1.2-5.6-.9 1.1-.8 7.6-.6 10 .4-1.5.1-5.8 1-7 .3-.2-.9 8.5-.9 9.1.5-1.5 1.4-7.3 2.7-8.2 0 0-2.3 8.5-2.4 9.3-.4 2-.3 4.3-.4 6.4.6-1.6.6-6.1 1.6-7.2 0 0-2 9.8-2 11a43 43 0 0 1 4-9.3c-.1 0-4.4 12.1-4.5 13 1-1.7 2.1-8.1 3.7-9 .2-.1-1.2 5-1.5 5.6-1 2.4-2.4 4.3-2.8 7 .8-1.4 4-9.8 5-10.2-.6.2-5.4 12.1-6 14 .6-.6 6.3-10 6.4-10-.4-.1-7.3 13.6-7.8 15.3.4-.6 4-7.2 4.4-7 .3.1-5.2 9.7-5.5 10.5.5-.8 8.5-10.4 8-10.9 1 1.2-8.6 12.5-9.3 14.2.5-.6 6.6-8.2 6.4-8.5.7 1-8.4 13.2-9.2 14.5 0 0 2.5-4 2.9-4 .6.3-3 5-3.3 5.4.8-.9 7.3-5.6 7.3-6.2-.1 1.6-5.2 5-6.5 6.1-1.8 2-3.4 4.1-4.8 6.3.5-.4 5.7-6 5.6-6.2 1 1.7-6 6.9-6.8 8.2.5-.3 7.6-6.3 7.2-6.4 0 0-10.6 11.5-11.3 12.5 1-1.1 8.5-6.3 8.5-6.6-.2 1.4-5.5 4.5-6.4 5.3a33.3 33.3 0 0 0-5.2 5.5c2.2-1.7 5.3-4.8 7.8-5.3-1.5 2.7-6 4.8-8.7 6.6-2.4 1.6-2 .3-2.6 3.9 1.9-3 1.4-2.5 4.4-2.5-4 2-4.8 5.8-8 8.3-.5.4-1.5-.8-2.4-.1-1.5 1.2-2.7 3.5-4 5.2 1.4-1 4-4.8 5.4-5.2 0 0-7 7-7.7 8 .6-.4 7.8-6 8.5-5.5-.1 0-9.8 7.2-11 8.4 1.6-1 6.4-5.6 8-5.6-.7 0-9.4 7.2-10.4 8.2 1.6-.8 9-5.9 9.9-5.6a91 91 0 0 0-12.6 8.5l10.7-5c-.2-.2-14 8-14.8 8.7a40 40 0 0 1 7.4-3.5c.2.2-9.6 5.3-10.3 5.8 1.4-.6 12.8-4.2 12.7-4.8.2 1.6-13.9 5.7-15.5 7 .8-.3 10-3.3 9.9-3.8 0 1.3-14.3 6.6-15.4 7.3 0 0 4.1-2.2 4.4-1.8.4.4-5 2.7-5.6 2.8 1.2-.3 9.2-1 9.4-1.4-.8 1.2-7.1 1.3-8.6 1.7-2.7.7-5 1.7-7.5 2.9.6-.1 8-2.2 8-2.4 0 2-8.7 2.7-10 3.3a72 72 0 0 0 9.5-1.7c-.1-.1-14.5 3.8-16.2 4.7 1.4-.3 10.6-.9 10.8-1.2-.9 1-6 .7-7.4 1-2.7.5-5.6 1-8.2 2 2.7-.1 7-1.2 9.4-.3-2.3 1.1-5.8.6-8.4.9-3 .4-4.5 1-7.6 2.6 2-.3 4.1-.5 6.2-.4-1.2 2.7-9.4 2.7-11.5 3-2.7.5-8.2.8-11.3 2.2.7 0 10-1.2 10.1-.5l-13.6 1.7c1.9 0 8.1-1.7 9.7-.9-.5-.3-12 1.5-13.1 1.9 1.4 0 10.5-1 11.3 0-.5-.5-13.2.5-15.2 1l11.7 1.1c0-.4-16-.2-17 0 .7.1 8 .2 8 .7 0 .2-10.8-.3-11.8-.2 1 .1 13.2 2.8 13.4 2.3-.6 1.3-14.9-2-16.8-1.9.8.2 10.2 2.2 10.4 1.8-.5 1-15.2-1.5-17-1.4 0 0 4.7.1 4.7.7 0 .5-5.8-.2-6.3-.3 1.2.3 8.5 3.6 8.9 3.4-1.3.6-6.8-2.3-8.5-2.8-2.6-.9-5.2-1-7.8-1.3.6.2 8 2.2 8.1 2-.9 1.6-8.8-2-10.4-2.2.6.3 9.1 3.7 9.1 3.3 0-.2-14.4-3.8-16.3-4 1.7.5 9.5 4.6 9.9 4.4-1.2.4-5.6-2.3-6.8-2.7-2.7-1-5.4-1.8-8.3-2.2 2.6 1.2 6.7 2.3 8.5 4.3-3 0-7.2-3-10.1-4.5-2.6-1.2-1.3-1.5-4.7-.3 3.5.1 2.8-.1 4.3 2.6-3.8-2.5-7.5-1.4-11.1-3-.6-.2 0-1.6-1.2-2.1-1.8-.9-4.4-.7-6.4-.9 1.6.7 6 1 7.2 2.2-.1-.1-9.6-2.6-11-2.8.8.3 9.2 3.8 9 4.6 0-.2-11.3-5-12.7-5.2 1.6.8 8 2.7 8.8 4.1-.4-.6-10.9-4.6-12.3-4.9 1.4 1 9.5 4.4 9.8 5.7-.1-.6-12.1-6.2-13.7-6.6.8.6 9.7 6.5 9.7 6.7.1-.3-13.8-8-14.9-8.3.6.3 7 4.1 6.8 4.5-.1.3-9.4-5.6-10.2-5.9.8.6 10 8.9 10.5 8.5-1.4 1-12-9-13.8-9.9 0 0 7.9 7 8.3 6.6-1 .7-12.6-8.6-14.2-9.6 0 0 4 2.6 3.9 3-.2.4-5-3-5.3-3.4.9.9 5.5 7.4 6 7.5-1.5-.1-4.6-5.2-5.6-6.2-2-2.2-4.2-3.8-6.6-5.4.4.5 5.9 5.8 6 5.7-1.6.9-6.7-6.1-7.9-7a74 74 0 0 0 6.2 7.4c.1-.2-10.6-10.4-12.2-11.6 1.2 1.3 6 8.6 6.4 8.7-1.2-.2-3.6-4.8-4.6-5.8a42 42 0 0 0-6-6c1.6 2.3 5 5.4 5.2 8-2.2-1.5-3.4-4.7-5-6.9a23.4 23.4 0 0 0-6-5.3c1.1 1.7 2.4 3.3 3.3 5.1-2.3.3-7-5.9-7.7-7.3-.8-1.4.1-2-.6-3.4-.9-1.5-4-4.9-5.5-5.9.8 1.2 5 5.7 5 7.1L47 239c-1.6-2-3.5-3.4-5.5-5.3 1 1.4 4.5 4.3 4.8 5.7-.1-.3-6.6-7.3-7.5-8.3.4.6 5.5 8.3 4.9 8.7a155 155 0 0 0-7.6-11.5c.8 1.7 5.1 6.7 5 8.4 0 .2-3.4-4.1-3.7-4.5-1.3-2.2-2-4.6-3.7-6.5.9 2.2 5.5 8.7 5 10.2.2-.6-6.7-12.2-7.6-13.3.2.8 4.3 11 4.1 11 .3-.2-6.5-14-7.5-15.4.2.6 3.2 7.5 3 7.7-.3 0-4.7-10-5-10.7.3 1.3 3 13 3.8 13-1.6 0-4.7-14.4-5.7-16 0 .7 2.4 10.1 3 10.1-1.3 0-5.4-14.4-6.2-16 0 0 1.9 4.4 1.4 4.7-.5.3-2.2-5.3-2.4-5.8.2 1.2.2 9.2.6 9.5-1.2-1-.8-7.2-1-8.9-.4-2.7-1.1-5.2-2.2-7.7 0 .6 1.4 8.1 1.6 8.2-1.9-.2-2.2-9.5-2.5-10.3 0 .7.6 9.7.9 9.6.2-.1-2.6-14.6-3.2-16.6v10.9c-.8-1-.2-7.1-.3-8.3a39 39 0 0 0-1.3-7.5c-.1 2.8.7 7-.5 9.5-1.3-2.9-.2-7.9 0-11 0-2.9.9-1.9-1.7-4.4 1.3 3.2 1.2 2.5-.6 5 .7-4.4-1.8-7.5-1.7-11.4 0-.6 1.5-.6 1.5-1.9 0-2-1.2-4.3-1.7-6.2 0 1.7 1.4 6 .8 7.5 0 0-1.3-10-1.6-11.2 0 .5-.1 10-.8 10.1.1 0 .3-12.3 0-13.7-.3 2 .7 8.2-.4 9.8-.2.2-.5-5.3-.5-5.9.1-2.5.8-5 .4-7.5-.3 1.4-.5 10.5-1.5 11.2.7-.5 1.2-13.2 1-15.2-.5 1.7-2.7 12.3-2.8 12.3.3 0 2.3-16 2.2-17-.2.7-1.3 7.9-1.8 7.9-.3 0 1.8-10.8 1.8-11.7-.3 1.2-4.6 12.5-4 13-1.5-.9 4-14.6 4.1-16.6-.3.7-3.6 9.9-3.1 10-1-.6 3.5-14.8 3.7-16.6 0 0-.9 4.7-1.3 4.7-.5 0 1.1-5.7 1.2-6.2-.5 1-4.9 7.8-4.8 8.2-.4-1.4 3.4-6.4 4.1-8 1.1-2.5 1.8-5 2.6-7.6-.3.5-3.4 7.7-3.3 7.8-1.4-1.3 3.5-8.5 3.8-10-.3.6-5.1 8.4-4.7 8.5 0 0 6.1-13.5 6.6-15.5-.7 1.5-6 9.1-6 9.1C3 120 6.5 116 7 114.8c1.4-2.4 2.7-5 3.5-7.7-1.6 2.2-3.4 6.5-5.7 7.6.6-2.6 3.3-4.9 4.7-7.1 1.6-2.6 2.2-4.1 3-7.5a34.8 34.8 0 0 1-3.8 5c-1.2-2.3 3.9-9 4.9-10.7 1.4-2.3 4.8-6.6 5.8-10-.4.6-5.6 8.3-6.2 8 0 0 7.2-10.4 7.7-11.4-1.3 1.4-4.2 7.2-5.8 7.8-.2.1 2.5-4.6 2.8-5 1.5-2.1 3.4-3.8 4.5-6.1-1.2 1.2-6.4 8.5-7.6 8.6a90 90 0 0 0 9.4-12c-.6.4-8.6 8-8.7 8 .3.2 10.5-11.4 11.4-12.9-.6.6-5.6 5.9-6 5.7-.2-.1 7.5-8.1 8-8.8-.7.6-10.8 8-10.5 8.4-.7-1.5 11.2-9.5 12.6-11.4-.7.4-8.4 6.2-8.3 6.7-.4-1 11.3-10.4 12.4-11.8 0 0-3.4 3.4-3.8 3.2-.4-.4 4.1-4 4.5-4.5-1 .7-8.3 3.7-8.6 4.2.5-1.3 5.1-2.9 6.4-3.5 2.8-1.6 5.4-3.5 7.7-5.8-.6.3-7 4.4-7 4.7-.5-1.8 7.5-5.2 8.6-6.2-.7.3-8.6 4.4-8.5 4.5 0 0 13-8.6 14-9.4-1.4.8-10 4-10 4.3.5-1.2 5.5-2.6 6.7-3.2 2.4-1.2 5-2.6 7.1-4.6-2.5 1-6.3 3.4-9 3.3 2.2-2.2 7.2-3.2 10.1-4.3 2.7-1 2 .1 3.5-3.1-2.4 2.4-1.8 2-4.8 1.4 4.4-1 6.1-4.5 9.8-6.1.6-.2 1.1 1 2.2.6 1.9-.8 3.5-2.9 5-4.1-1.5.7-4.9 3.8-6.4 3.8.1 0 8.5-5.2 9.5-6-.7.3-9 4-9.5 3.3.1.1 11.1-4.6 12.6-5.6-1.8.5-7.5 4-9.1 3.7.7 0 10.8-4.8 12-5.6-1.5.3-9.7 3.9-10.9 3.1.7.4 12.6-4.3 14.3-5.3L70 23.4c0 .2 15.3-4.5 16.4-5-.6 0-7.9 2.1-8 1.7-.2-.3 9.9-2.6 11.2-3.2-1.3.2-13.3 1-13.3 1.7.2-1.6 14.8-2.3 16.6-3.2-.8 0-10.4 1-10.5 1.5.2-1.4 15.4-3.2 16.7-3.7 0 0-4.6 1.2-4.8.7-.2-.5 5.6-1.4 6.1-1.5-1.2 0-9-1.1-9.5-.8 1.2-1 7 .3 8.4.3 3 0 5.6-.5 8.5-1-.8 0-8.4.3-8.4.5.4-1.9 9-.7 10.5-1-.7 0-9.7-.7-9.6-.5.1.2 15-.5 16.8-.8-1.8 0-10.4-1.6-10.8-1.4 1-.8 6 .6 7.4.7 2.8.2 5.7.2 8.4-.2-2.8-.5-7-.2-9.3-1.7 1.9-.5 4.9.4 6.9.7 3.9.6 5.4.5 9.5-.5-2-.2-4.1-.4-6-1.1 1.3-1.9 9-1 10.6-.6 1.7.4 2.2 1.5 4.4 1.8 2.5.3 5-.5 7.4-.8-1.8-.3-6.1.7-7.5-.1 0 0 10-.1 11.3-.3-.8-.2-10-1.3-10-2 0 .1 12.3 1.7 13.7 1.6-1.8-.5-8.3-.4-9.6-1.6.5.3 12.2 1.4 13.3 1.4-1.4-.4-10.4-1.6-11-2.7a86 86 0 0 0 15 2.7c-.7-.3-11.1-3.6-11.1-4 0 .5 14.8 4 16.6 4.1-.7-.2-7.8-2.1-7.8-2.6 0-.2 10.5 2.8 11.4 3A93 93 0 0 0 158 .1c1-1.3 14 5.4 16 5.7a76 76 0 0 0-9.9-4.2c.7-1 14.5 5 16.2 5.3 0 0-4.6-1.3-4.4-1.8 0-.5 5.6 1.7 6 1.8-1-.5-7.4-5.6-7.8-5.5 1.4-.3 6.1 4 7.6 4.8 2.4 1.3 4.8 2.2 7.3 3.1-.5-.4-7.3-4-7.4-3.8 1.3-1.4 8.1 4 9.5 4.5-.4-.4-8-5.7-8-5.3 0 .1 13.1 7.2 14.9 7.8-1.3-.7-8.3-6.7-8.6-6.6 1.3-.1 4.9 3.5 6 4.3 2.4 1.7 4.8 3.1 7.5 4.1-2.2-2-6-3.8-7.3-6.2 2.5.8 4.6 3.6 6.9 5.1 2.5 1.8 4 2.3 7.2 3.4a28.5 28.5 0 0 1-4.6-4c2.3-1 8.6 4.3 10.3 5.5 2.2 1.5 6.3 5 9.7 6.3-.6-.4-8-5.9-7.7-6.6 0 0 9.7 7.5 11.1 8.1-1.4-1.4-7-4.3-7.6-6 0-.2 5.1 3 5.5 3.4 1.7 1.5 3.2 3.1 5.3 4.3-1-1.2-8.1-6.6-8.1-7.9a74 74 0 0 0 11.6 9.8s-7.8-8.9-7.7-9c-.2.3 11.5 11.1 12.5 11.9-.5-.7-5.7-5.8-5.4-6.2 0-.2 7.7 7.8 8.4 8.3-.6-.7-7.6-11-8-10.8 1.4-.6 9.3 11.7 10.9 13-.4-.8-6-8.7-6.3-8.5.8-.3 3.6 3.7 4 4.3 2.4 3.1 4.3 5.8 7.3 8.5 0 0-3.4-3.4-3-3.8.3-.4 3.9 4.2 4.2 4.6-.6-1-3.5-8.4-4-8.6 1.5.5 3.2 6.2 3.9 7.4 1.4 2.6 3 4.8 5 7-.3-.7-4.3-7.2-4.5-7.2 1.8-.5 5 7.6 6 8.8a86 86 0 0 0-4.4-8.7s8.2 13.4 9 14.3c-.8-1.5-3.8-10-4-10.1 1.2.5 2.4 5.6 3 6.8 1.2 2.6 2.5 5.2 4.3 7.4-1-2.6-3.3-6.6-3.1-9.1 2.1 2.3 3 7.2 4 10.4.9 2.3-.1 2.2 3 3.3-2.3-2.6-2-1.9-1.2-4.9 1 4.2 4.9 6.4 5.8 10 .2 1-1.2 1.2-.7 2.5.6 1.6 2.8 3.5 3.9 4.9-.6-1.6-3.6-5-3.6-6.6 0 .3 5.1 8.8 5.7 9.7 0 0-3.5-9.3-3-9.5a371 371 0 0 0 5 12.8c-.5-1.7-3.6-7.7-3.2-9.2-.2.7 4.4 11 5 12.4-.1-1.5-3.4-10-2.8-11-.4.6 4 12.9 4.7 14.4 0-.8-2-11.5-1.8-11.6a212 212 0 0 0 4.3 16.6c-.1-.7-1.7-8-1.4-8 .4-.1 2.5 10.7 2.8 11.5-.1-1.6-.5-13.4-1.1-13.5 1.6.3 1.6 15 2.3 16.8 0-.8-.3-10.5-.8-10.6 1.3.3 2.4 15.6 2.8 17 0 0-1-4.7-.4-5 .5 0 1 5.8 1 6.3 0-1.2 1.8-9 1.4-9.5 1 1.3-.6 6.4-.7 8-.2 3.1 0 6 .5 9 0-.2.3-8.4.1-8.4 1.8.5.1 9.1.2 10.6l1.2-9.6c-.2 0-.6 14.9-.4 16.9.1-1.7 2.5-10.3 2.3-10.7.7 1-1.2 6-1.3 7.3-.4 2.9-.6 5.6-.4 8.5.7-2.8.8-7 2.5-9.2.5 2-.8 5.4-1.5 7.6-.9 3.4-.7 5-.2 8.8.5-2 .9-4 1.7-5.9 2.3 1.5.3 11.8-2.5 12.1zm-29.2 80.2c2-1.6 2.5-2 2.7-4.6-1.4 1.5-2.5 2.3-2.7 4.6zm-.8 2.9c1-1.1 1.9-2.8 2.8-4-1.4 1.2-2.5 2-2.8 4zm-1.6 1.4c.7-.4 1.2-1 1.2-2-.6.6-1 1.3-1.2 2 .2-.2.3-.7 0 0zm-1 2c.8-.2 1.3-.8 1.4-1.6-.7.3-1.2.8-1.5 1.6.4-.4.1-.2 0 0zm-133.8 48c2.4.9 3 1.2 5.5.2-2.1-.5-3.5-1-5.5-.1zm-3 .8c1.7.4 3.3.4 5 .5-1.8-.6-3.2-1.2-5-.5zm-2-.6c.8.4 1.5.4 2.3-.1h-2.3c.3.2.8 0 0 0zm-2.1 0c.6.6 1.3.8 2 .5a3 3 0 0 0-2-.5c.5.2.2 0 0 0zm-74.4-38.6c.9 1.3 4 5 4.5 5.3.8.7 1.4 1 2.5 1.4-2.8-1.9-4.3-4.8-7-6.7.7 1 .7.5 0 0zm-36.2-62c.2 2.6 0 3.1 2.1 5-.3-2.2-.4-3.6-2.1-5zm-1.8-2.5c.2 1.7 1 3.2 1.5 4.7-.1-1.8-.1-3.3-1.5-4.7zm-.2-2.1a2 2 0 0 0 1 2.1l-1-2.1c0 .3.3.7 0 0zm-.8-2c0 .8-.2 1.4.3 2.1.1-.8 0-1.4-.3-2.1zM59 40c-2.3 1.2-2.8 1.3-3.8 3.9 2-1.2 3.2-1.8 3.8-3.9zm1.6-2.7c-1.5.9-2.6 2.2-3.8 3.3 1.7-1 3-1.4 3.8-3.3zm2-1c-1 .3-1.4.8-1.6 1.8l1.5-1.8c-.3.1-.6.6 0 0zm1.4-1.6c-.9 0-1.5.4-1.8 1.1a3 3 0 0 0 1.8-1.1c-.5.3-.2.2 0 0zm65-26c1.6 0 2.1.2 3.3-.7-.7 0-2.3.4-3.2.6.6 0 .4 0 0 0zm1.2.4c-2.8-.3-3.9.1-6 1.9 2.2-1 4-.3 6-1.9zm2.4.2c-1.5 0-2.2.4-3.5 1.3 1.4 0 2.3-.8 3.5-1.3-.4 0-.9.4 0 0zm4.2-1.4c-2-.1-2.7-.1-4.6 1 1.9 0 2.6-.4 4.6-1-1-.1-.8.2 0 0zm2-.6c-2-.2-2.3-.6-4-.1 1.5 0 2.8.4 4 0-.8 0-.2.2 0 0zm129.7 58c-1.1-2.4-1.2-2.9-3.8-3.9 1.1 1.8 1.7 3.2 3.8 4zM271 67c-.8-1.4-2-2.5-3.1-3.9.8 1.8 1.3 3.2 3.1 3.9zm1 2c-.2-.9-.9-1.5-1.8-1.7.5.6 1.2 1.1 1.8 1.6-.1-.3-.6-.6 0 0zm1.5 1.5c0-1-.3-1.6-1-1.9 0 .8.4 1.5 1 1.9-.2-.5-.2-.2 0 0zm-156 135c-3.3.6-19.6-1-19.6-1 1.6-.6 19.5 1 19.5 1zm80.6-.1c0-.7-.1-1.1-.6-1.4 1 .6 0-1.5-.6-1.7-2.4-1-8.4.6-11.2.8l-11.2 1c-15.4 1.2-30.8 2.4-46.1 2.4-14.6 0-29.2-1.1-43.7-2.8-5.4-.7-10.7-1.2-15.9-2.7-2.6-.8-8.8-3.6-11.4-1.1 8 4 19 4 27.8 5 11.6 1.5 23 2.2 34.7 2.5 11.1.3 22.2.2 33.3 0l16.7-.7c4.7-.3 8.7-2.4 13.4-1.6-2.5 1.5-7 .8-9.9 1.5 8.2-.5 16.4-.8 24.7-1.2 0-.4-8.3.4 0 0zm-136.3-4.8c-.8.1-1.4-.2-2-.8.4 0 .6-.2.5-.5.3 0 2.1.3 1.5 1.3-.8.2.2-.3 0 0zm.8-.8c1.1.5 2.4 1.1 3.6 1.3-1.4.1-2.6-.3-3.6-1.3zm53 20.7c1 0 1.6.5 1.8 1-.5 0-.5 0-1.8-1zM114 215c.7 0 1.2.4 1.4 1 .1.7-.3 1.3-1.1 1.3-1 .1-1.2-.7-1-1.3 0-.4.3-.7.7-1zm-26.6-3.2c-.1.3-.4.4-.6.3-.2 0-.3-.3-.2-.5 0-.3.5-.5.7-.4.2.1.2.3 0 .6zm28.7 4.8c0-.5.2-.8.6-1l1 .3h-.3c.2.2.3.5 0 .7l-.5.4c-.4.1-.5 0-.8-.4zm-12.4 10c0 .2.3.3.3.5.2.4-.1.6-.4.6a.8.8 0 0 1-.7-.5v-.5c.2-.2.5-.1.8 0zM56 218.3v.3c.2.2 0 .3-.1.3-.2 0-.3 0-.5-.2v-.3c.2-.2.4-.2.6 0zm1.1 1.2c0 .2-.2.3-.4.2l-.3-.5.2-.2c.3 0 .4.4.5.5zm66.9 5c-1.1-1-2.6-1.3-3-3-.6-1.3 0-2.9-.9-4.5.7 1.7 2.2 1.4 3.8 2 2.4.8.9 3.7.6 5.4.3-1.7-.8-4.1-2.5-4.7a6.3 6.3 0 0 1 2.2 5.3zm63.4 1c-.6-1.5-1.8-2.3-1.6-4 .2-1.5 1.3-2.1 1.3-3.9-.1 1.9 1.7 1.5 2.5 2.9 1 1.5-.5 3.5-1.6 4.9.9-1.6-.1-3.4-.3-5.1.2 1.9.7 4-.4 5.6zm-7.6-3.3c.1 3.3-2 3.8-2 .2 1 0 .4.8 1.4.7v-2.2c.3-1.1 0-1.5-.9-1.2.2.4-.2.8-.5.8 0-.8-.2-3 1.4-2.3 1.6.8-.4 2.2 2 2.2v-4.1l-4.2.1c-2 0-2.4-.4-2.9 1-.4 1 .6.8.7 1.3.2 1 .1 2 .2 3 0 1.1 0 2.1-.2 3.2 0 .2-.9.8-.5 1.6.5 1 5.6.4 7.2.3 0-2 .8-4.6-1.7-4.6zm-3.4 2.9h-.1V224c0 .2.2.4 0 .5v.3h.4l-.3.3zm-9.6-8c-.3.8.6 2.6.8 3.5.1.7.2 2.4 0 3.2 0 .1-.8 1.7-.8 1.4 0 2.7 1.8 1.9 4.3 1.8 0-1-.2-1.4-.3-2h-.4.4-.6c0-.6 0-1-.2-1.6l.3.2v-1c.9 0 .3.8 1.3.7V221c.4-1.1 0-1.5-.8-1.2.2.4-.2.8-.6.8 0-.8-.2-3 1.5-2.3 1.6.8-.4 2.2 2 2.2v-4.1c-1.1 0-6.5-.3-7 .6zm2.2 1.5h-.7c0-.3.2-.5.5-.5v.1h.3v.4zM92.4 215c-.3.3 0 1.7 0 2 0 0 .5 1.6.5 2.4l-2-.1c.1-2.3 1-2.3 1-4.3-2-.1-4-1-4.3 1.2-.1 1 .6.2.6.8.4 3.2-1 5.4-1.2 8l4.3.3c0-2-.7-2.4-.6-4.4 3.5.2 1.2 2.2 1 4.5l4.2.2c.1-1 0-1.6-.2-2.2-.2.2-.4.3-.6.2.1-.2.3-.3.5-.3v-.3s0-.2-.2-.2h-.6l.7-.3-.8.2c0-.4.3-.7.7-.7v-.3c-.2-2.9 1-4 1.2-6.3-.4-.2-3.8-.8-4.2-.4zm-3.6.9c-.2.2-.5-.2-.4-.4l.2-.2h.5-.4c.2 0 .3.4.1.6zm71.9 1.4c-.4.5-.4 2-.5 2.7l-1 4.8c-.3.7-1 0-.8 1.3.4 1.5 1.8.9 3.4.9 0-.4-.5-2.7-.6-2.3.5-1.3 1-1 1.5 0 .2.6-1-.4-.4 1.3-.3 1.1.2 1.4 1.4.9h2.7c0-3.3-1.9-7.1-2.7-10.5-1.7.2-2.2-.1-3 1zm.8 5.3l.5-2.1c.3 1.3 1.1 2.1-.5 2.1zm2.8-3.2v.2l.4 1.7c.2.8.4 2 .1 2.6l-.5-4.3v-1zm86.4 3.3c-1.5.1-2.4.4-3.3-.2l-.1-.5-.1-.6-.8-.4c-.3-.3 0-1-.3-1.2 0-.5-.1-1.2-.3-1.7l-.4.1-.1-.2v.3l-.1.3.3.9.6 1.8v1l.3.4v.5l-3.4.3c-.2-2.3 1-4 .2-6.6 0-.4-1.1-2.6-1-3-.4-1.2 0-1.5 1.3-1.2.7 0 1.4 0 2-.2l.7.6-.1-.7 2.1 4.8c0-1.1-.8-2.6-.9-3.4-.1-2 1.2-1.6 3.3-1.8.2 1.8-.4 2.3-.4 4-.3 2.2.3 4.6.5 6.7zm-28 0s0 .5-.4.5c.1 0-.3-3.3-1.5-3.5 2.8-2.2.3-5.5-2.8-5.2h-.2c-1.9 0-3.2-.4-3.2 1.7 0 1 .6.2.7 1 .8 3-.3 5.5-.2 8.2h.7l.4-.4.2.4h.3l.1-.6c.3 0 .7-.1.8-.6l.1 1h-.2 1.9c-.1-2-1-2.7-1.1-5 2 .3.3 4.1 2.3 4.9 2.3.6 2.8-2.5 2-2.5zm-4.3-3.9l-.1-.9h-.7c.3 0 .5-.4.5-.6-.2 0-.4 0-.5-.2l.2-.2h.5c0-.2.2-.4.4-.3.6.2.7.2.7 1 0 0 0-.2 0 0 0 1.1-.2 1.2-1 1.2zm-19.1 0zm-87-.4c0-1 .8-.3 1.2-.2 1.2.2-.8 1.4 1.7 1.5l.1-3.7c-.6-.3-1-.2-1.3.3-1.3-.7-3-.8-4 .5-1.5 2 .2 3.8 1.5 5.1.1.1 2.4 2 1 2.1-2 .2-1-2.2-3.1-2.3l-.1 2.7c-.5 1.4-.2 1.9 1 1.6-.7-.4 1.3-.2 1-.2 2 0 3.6.7 4.2-2 .7-2.8-3.5-3.3-3.2-5.4zm-.3 3.4c-.6-.3-1-1-1.2-1.5.1.4.3.7.7 1 .3.2.8.4.9.7zm86-6.2s.2 0 0 0zm-105.1 3.8c-.7-.1 0-.9 0 0zm50.8 7.6c-1.5 0-6.6.4-7-.6-.4-.8.5-1.4.6-1.6l.2-1.8 1-.5c-.5-.3-.7-.6-.9-1v-2.8c-.2-.6-1.2-.3-.8-1.3.6-1.4 1-.9 2.9-.9h1.4v.1l.1-.1.8.8c.1-.3.4-.5.7-.7 0 .4.7.5 1 .2l.1-.3v4c-2.5 0-.4-1.2-2-2-1.6-.9-1.5 1.3-1.5 2 .4 0 .8-.2.6-.6 1-.2 1.2.2.7 1.2v2.2c-1 0-.5-.8-1.3-.8-.1 3.5 2 3 2-.2 2.5.1 1.5 2.6 1.4 4.7zm-2.4-10.4s-.1 0 0 0zm-6.4 5.7c-.1 3.3-2.2 3.6-2 .2.9 0 .2.8 1.3.8v-2.2c.4-1 .2-1.4-.7-1.2.2.4-.3.7-.7.7 0-.8 0-3 1.6-2.2 1.5.9-.5 2.2 2 2.2l.1-4.1-4.2-.1c-2 0-2.3-.5-2.8 1-.4 1 .6.7.6 1.2v2.9c0 1.1-.1 2-.3 3.2 0 .2-1 .7-.6 1.6.4 1 5.6.6 7 .6.2-2.1 1.1-4.6-1.3-4.6zm-4.1-4.7l-.2-.5.1.4c-.1-.2-.2-.4-.1-.6h.3c.1.2.1.5-.1.7zm2 9l-.7.3c.2-.3.8-.4 1.4-.4h1.5c-.6.4-1.5.4-2.3.2zm29.2-6.1c.2.8-.2.8 0 0zm-48-4.1c-.3-.2 0-.2 0 0zm41.7 8.6c-1.2.7-1-1.4-1-1.9-.2-.5-.5-4.3.4-4.6 1-.3.9 1.7.9 2.4h2v-4.3c-4 0-6.8.5-6.5 5.8 0 2.3 1 4.9 3.7 4.9 3 0 2.8-2.8 2.8-5-3.7 0-.3 1.2-2.3 2.7zm1-7.7v.3c.2 0 .2-.3.3-.4.2 0 .3.3.3.4 0 .2-.2.3-.3.5-.2-.3-.3-.6-.2-.8zM152 221a6 6 0 0 0-.1 2.3c-.3-.8-.2-2-.1-2.8h.2l.2 1.2zm-50.3-3.2c0 1 .3 4.6-.4 5.5-1.2 2-1-2.7-1-3 0-1.8.5-3 .6-4.8l-2.4-.1c-1.2-.5-1.6-.2-1.4.9-.9 2 .3.5.4 1.3.2 2.2-1 5.4.8 7.3 1.1 1.2 2.1 1.5 3 1-.2-.1-.2-.2-.2-.3h.1l.1-1c.2.3.4.6.4 1 2-1.9 2.8-8.3 2.8-10-3.2-.1-3-.3-2.8 2.2zm-2.3-.5c0 .4-.4.8-.5 1.2l.1-.9a2 2 0 0 1 0-1.5c.4.3.5.8.4 1.2zm45.6-.6c-1.2.6-.8 2.8-.8 4.5 2.5 0 .6-1.7 1.4-1.8 0 0 .3-1 .7-.7.7.7.3 6.3-.8 6.6v.3c0 2.5 1.7 1.6 4.3 1.7 0-2-.9-3-.8-5.3 0-.2-.3-3.6.5-3.2 1.5.9-1 2.5 1.7 2.5v-4.5c-1.2-.1-5.1-.7-6.2-.1zm2.4 7.1c0 .5-.3 1-.8 1.4v-.3c0-.4.2-.8.8-1zm-38.7 2.4h-.5l-.5-1-.1-.3a3 3 0 0 1 .3-2 1 1 0 0 0-1 .2c.4 0 .6.2.7.4 0 .2-.2.5-.4.4l.4 1c0 .6.3 1 .5 1.4-2.2 0-3.9.4-3.7-2 0 .3.8-1.3.8-1.2.2-.8.2-2.6.2-3.4 0-.5-.5-2-.5-2 0-2.7 1.3-2 4.2-1.7l-.1 2c-2.3-.4-.3 7-.3 8.2zm133-11.4l-.1-2c-2.7.1-4.7-.6-4 2.3.1.4.7 1.2.8 2.1l.2 2.4c0 .5-.5 3-.6 2.3.2 2.6 2 1.6 4.5 1.4 0-.8-2.8-8.3-.7-8.5zm-3 0a.7.7 0 0 1-.5-.5v.4l-.2-.5h.1l.1-.3.2-.3c.2.1.3.3.4.6 0 .3 0 .5-.2.7zm-25.6 6c.2 3.3-1.9 3.8-2 .4 1 0 .3.8 1.4.7v-2.3c.2-1.2 0-1.6-.9-1.3.2.4-.2.8-.5.8-.2-2.8 1.9-3 2 0l1.6-.2-.2-4.1-4.2.2c-2 0-2.3-.3-2.9 1-.3 1.1.7.8.8 1.4l.3 3-.1 3.1c0 .2-1 .8-.5 1.7.2.3.9.5 1.8.5v-.1l.4-.2h.2c.4.3.7-.5 1.1-.4.2.2.1.4 0 .7l3.7-.3c-.3-2 .4-4.6-2-4.5zm-4.8-3v-.3.5a9 9 0 0 1-.2-1.7c.4.5.5 1.1.2 1.5zm-7 3.3c0-.1 0-.1 0 0 0-.1 0-.1 0 0zm-122 3.3c-1.4 0-6.6 0-7-1-.3-.9.6-1.3.7-1.5l.5-3c.1-1 .2-2 .1-3 0-.5-1-.3-.6-1.2.6-1.4 1.1-.9 3-.8l4.1.4-.3 4-1.5-.2c.2-2.8-1.8-2.8-2 0 .3 0 .8-.4.6-.8.9-.2 1.1.2.7 1.2l-.2 2.3c-1-.1-.4-.8-1.3-.8-.1 1 0 1.7.3 2v.1l.3.2v.4l.3-.3.4.3v-.8c.4-.1.5-.4.4-.7l.2-1.2c2.6 0 1.4 2.3 1.3 4.4zm127.5-7.2v-2c-2.7.2-4.8-.5-4.1 2.3 0 .4.6 1.2.7 2.2l.2 2.3c-.1.5-.6 3-.7 2.3 0 2.7 2 1.8 4.3 1.6 0-1.1-2.6-8.6-.4-8.7zm-3.2-.7v-.5c.3 0 .5.3.7.4l-.7.1zm.7 1.2h-.2v-.4h.5l-.3.4h.6zm-118.9 2.6c-.2 3.1-2.2 3.4-2 0 1 .2.2.9 1.3.9l.1-2.3c.5-1 .2-1.4-.7-1.2.2.4-.3.7-.6.7.2-2.7 2.2-2.6 2 .1l1.6.1.2-4-4.2-.2c-1.8-.1-2.2-.7-3 .7-.5 1 .6.8.7 1.3l-.1 2.8c-.1 1.2-.3 2-.6 3.1 0 .2-1 .6-.6 1.5.4 1 5.6.8 7 1 .4-2 1.4-4.3-1-4.5zm-2.6-3.4l.1-.2-.2.2v-.7h.4c.1.3 0 .6-.3.7zm2.4 6.3v.4h-.4c0-.2 0-.4.2-.6h.5c0 .1-.2.3-.3.2zm132.8-8.6h-.2zm1.4 3.3zm3.7-3.6c-1 .7-.6 2.8-.4 4.5 3.5-.3-.2-1 1.3-1.8 0 0 0-1.2.7-.8.7.6.8 6.3-.3 6.7v.3c.3 2.6 1.8 1.7 4.3 1.4 0-1-2.6-8.5-1-8.6 1.7.8-.9 2.6 2 2.4l-.3-4.6c-1.3.1-5.1-.3-6.3.5zm.9.6c.2-.1.4 0 .4.2-.2 0-.4 0-.4-.2l.5-.1zm1.5 1.3l-.7-1.1c.2-.1.5 0 .7.2.2.2.3.5.3.7l-.4-.2s.2.3 0 .4zm-154 4.9c.2.9.4 1.5.3 2.8l-4.3-.3c.2-2.1 2.7-4.1-.8-4.4-.2 2 .6 2.5.4 4.4-.7 0-1.4 0-2.1-.2l-.2-.2-.1.1H64c0-.2 0-.3-.3-.5l-.6.4h-.5c.3-2.5 1.7-4.7 1.4-8 0-.5-.8.3-.6-.7.3-2.3 2.3-1.3 4.4-1-.2 2-.9 2-1.1 4.2l2 .2c0-.7-.5-2.3-.5-2.4 0-.2-.3-1.7 0-2 .3-.4 3.9.3 4.3.3-.2 2.2-1.3 3.4-1.3 6H71c-.3.5-.4 1.2-.1 1.7h.3c0-.3.2-.3.2-.4zm-.2-1.2l-.1-.2v-.1c.2 0 0 .2 0 .3zm131.6 4.2zm35.2-2.2zm-169.4-4.2c-.8 0 .1-.8 0 0zm130.8 5.4zm2.4 1v-2.6h-.8l.1-.5-.3-.2c2.6-2.3.1-5.3-2.8-5.1h-2.9c-.8.7-.4.4-.5 1.6-.1 1 .6.2.7 1 .7 3-.4 5.4-.4 8 1.7 0 4.9.5 6.3-.7a3 3 0 0 0 1-1.8c0 .2-.3.3-.4.3zm-6-7.6c-.3 0-.5-.3-.3-.5v.5c0-.1 0-.2-.2-.3l.1-.1v-.2c.3.3.7.3 1.1.2-.2.2-.4.4-.7.4zm2.7 1.4c.6.2.7.2.7 1 0 0 0-.2 0 0s0 .1 0 0c0 1-.2 1-1 1.2 0-.3-.5-2.4.3-2.2zm-.1 6.4c0-.3-.5-2.7.3-2.4.6.2.7.3.7 1.2 0 0 0-.2 0 0s0 .1 0 0c0 1-.2 1.2-1 1.2zM63.3 212.8c-1.5 0-3.8-.8-5.4-.5-1.4-.6-2-.2-1.6 1.3l-.3 2.9c2.4.2.8-1.6 1.5-1.6.1 0 .4-1 .8-.5.7.6-.2 6-1.3 6.2v.3c0 2.4 1.6 1.7 4 2 .2-1-1.2-8.4.4-8.2.6.4.2 2.1.2 2.4 2.2.1 1.5-2.3 1.7-4.3zm-4 5l-.5.2v.4a2 2 0 0 1-.8 1.7c-.2-.1-.2-.4 0-.6l.2-.4c.5-1 .7-2 .5-3.2l.5 1.6c.2.1.2.2 0 .3zm175.2-2.1v.2h.4c0 .3-.1.5-.3.6h.7v.3c-.1.2-.3.3-.5.3.2 1.5.5 3.6.2 4.3-1 2.1-1.5-2.8-1.5-3 0-1.9.2-3.2.1-5-2.1.1-3.7-.5-3.6 1.8 0 .8.5.4.6.9.5 2.2-.3 5.6 1.6 7.2 5.5 4.7 5.1-8 5-10.3-3.4.3-3.2.1-2.7 2.7zm-2.6 6.6v-.2.2a.8.8 0 0 1-.2-.4v-.4l.1-.4.1 1.2z"/></svg>
